0
SECTION
2
HEADER
9
$INSUNITS
70
4
0
ENDSEC
0
SECTION
2
TABLES
0
TABLE
2
LTYPE
0
LTYPE
72
65
70
64
2
CONTINUOUS
3
______
73
0
40
0
0
ENDTAB
0
TABLE
2
LAYER
0
ENDTAB
0
ENDSEC
0
SECTION
2
ENTITIES
0
LINE
8
front_outsideCutPath
10
64.25
20
13
11
116.25
21
13
0
LINE
8
front_outsideCutPath
10
116.25
20
13
11
116.25
21
3
0
LINE
8
front_outsideCutPath
10
116.25
20
3
11
180.5
21
3
0
LINE
8
front_outsideCutPath
10
180.5
20
3
11
180.5
21
59.75
0
LINE
8
front_outsideCutPath
10
180.5
20
59.75
11
170.5
21
59.75
0
LINE
8
front_outsideCutPath
10
170.5
20
59.75
11
170.5
21
111.75
0
LINE
8
front_outsideCutPath
10
170.5
20
111.75
11
180.5
21
111.75
0
LINE
8
front_outsideCutPath
10
180.5
20
111.75
11
180.5
21
164.75
0
LINE
8
front_outsideCutPath
10
180.5
20
164.75
11
170.5
21
164.75
0
LINE
8
front_outsideCutPath
10
170.5
20
164.75
11
170.5
21
216.75
0
LINE
8
front_outsideCutPath
10
170.5
20
216.75
11
180.5
21
216.75
0
LINE
8
front_outsideCutPath
10
180.5
20
216.75
11
180.5
21
273.5
0
LINE
8
front_outsideCutPath
10
180.5
20
273.5
11
116.25
21
273.5
0
LINE
8
front_outsideCutPath
10
116.25
20
273.5
11
116.25
21
263.5
0
LINE
8
front_outsideCutPath
10
116.25
20
263.5
11
64.25
21
263.5
0
LINE
8
front_outsideCutPath
10
64.25
20
263.5
11
64.25
21
273.5
0
LINE
8
front_outsideCutPath
10
64.25
20
273.5
11
0
21
273.5
0
LINE
8
front_outsideCutPath
10
0
20
273.5
11
0
21
216.75
0
LINE
8
front_outsideCutPath
10
0
20
216.75
11
10
21
216.75
0
LINE
8
front_outsideCutPath
10
10
20
216.75
11
10
21
164.75
0
LINE
8
front_outsideCutPath
10
10
20
164.75
11
0
21
164.75
0
LINE
8
front_outsideCutPath
10
0
20
164.75
11
0
21
111.75
0
LINE
8
front_outsideCutPath
10
0
20
111.75
11
10
21
111.75
0
LINE
8
front_outsideCutPath
10
10
20
111.75
11
10
21
59.75
0
LINE
8
front_outsideCutPath
10
10
20
59.75
11
0
21
59.75
0
LINE
8
front_outsideCutPath
10
0
20
59.75
11
0
21
3
0
LINE
8
front_outsideCutPath
10
0
20
3
11
64.25
21
3
0
LINE
8
front_outsideCutPath
10
64.25
20
3
11
64.25
21
13
0
LINE
8
left_outsideCutPath
10
252.75
20
13
11
304.75
21
13
0
LINE
8
left_outsideCutPath
10
304.75
20
13
11
304.75
21
3
0
LINE
8
left_outsideCutPath
10
304.75
20
3
11
357.75
21
3
0
LINE
8
left_outsideCutPath
10
357.75
20
3
11
357.75
21
13
0
LINE
8
left_outsideCutPath
10
357.75
20
13
11
409.75
21
13
0
LINE
8
left_outsideCutPath
10
409.75
20
13
11
409.75
21
3
0
LINE
8
left_outsideCutPath
10
409.75
20
3
11
462.75
21
3
0
LINE
8
left_outsideCutPath
10
462.75
20
3
11
462.75
21
13
0
LINE
8
left_outsideCutPath
10
462.75
20
13
11
514.75
21
13
0
LINE
8
left_outsideCutPath
10
514.75
20
13
11
514.75
21
3
0
LINE
8
left_outsideCutPath
10
514.75
20
3
11
574
21
3
0
LINE
8
left_outsideCutPath
10
574
20
3
11
574
21
59.25
0
LINE
8
left_outsideCutPath
10
574
20
59.25
11
584
21
59.25
0
LINE
8
left_outsideCutPath
10
584
20
59.25
11
584
21
112.25
0
LINE
8
left_outsideCutPath
10
584
20
112.25
11
574
21
112.25
0
LINE
8
left_outsideCutPath
10
574
20
112.25
11
574
21
164.25
0
LINE
8
left_outsideCutPath
10
574
20
164.25
11
584
21
164.25
0
LINE
8
left_outsideCutPath
10
584
20
164.25
11
584
21
217.25
0
LINE
8
left_outsideCutPath
10
584
20
217.25
11
574
21
217.25
0
LINE
8
left_outsideCutPath
10
574
20
217.25
11
574
21
273.5
0
LINE
8
left_outsideCutPath
10
574
20
273.5
11
514.75
21
273.5
0
LINE
8
left_outsideCutPath
10
514.75
20
273.5
11
514.75
21
263.5
0
LINE
8
left_outsideCutPath
10
514.75
20
263.5
11
462.75
21
263.5
0
LINE
8
left_outsideCutPath
10
462.75
20
263.5
11
462.75
21
273.5
0
LINE
8
left_outsideCutPath
10
462.75
20
273.5
11
409.75
21
273.5
0
LINE
8
left_outsideCutPath
10
409.75
20
273.5
11
409.75
21
263.5
0
LINE
8
left_outsideCutPath
10
409.75
20
263.5
11
357.75
21
263.5
0
LINE
8
left_outsideCutPath
10
357.75
20
263.5
11
357.75
21
273.5
0
LINE
8
left_outsideCutPath
10
357.75
20
273.5
11
304.75
21
273.5
0
LINE
8
left_outsideCutPath
10
304.75
20
273.5
11
304.75
21
263.5
0
LINE
8
left_outsideCutPath
10
304.75
20
263.5
11
252.75
21
263.5
0
LINE
8
left_outsideCutPath
10
252.75
20
263.5
11
252.75
21
273.5
0
LINE
8
left_outsideCutPath
10
252.75
20
273.5
11
193.5
21
273.5
0
LINE
8
left_outsideCutPath
10
193.5
20
273.5
11
193.5
21
217.25
0
LINE
8
left_outsideCutPath
10
193.5
20
217.25
11
183.5
21
217.25
0
LINE
8
left_outsideCutPath
10
183.5
20
217.25
11
183.5
21
164.25
0
LINE
8
left_outsideCutPath
10
183.5
20
164.25
11
193.5
21
164.25
0
LINE
8
left_outsideCutPath
10
193.5
20
164.25
11
193.5
21
112.25
0
LINE
8
left_outsideCutPath
10
193.5
20
112.25
11
183.5
21
112.25
0
LINE
8
left_outsideCutPath
10
183.5
20
112.25
11
183.5
21
59.25
0
LINE
8
left_outsideCutPath
10
183.5
20
59.25
11
193.5
21
59.25
0
LINE
8
left_outsideCutPath
10
193.5
20
59.25
11
193.5
21
3
0
LINE
8
left_outsideCutPath
10
193.5
20
3
11
252.75
21
3
0
LINE
8
left_outsideCutPath
10
252.75
20
3
11
252.75
21
13
0
LINE
8
top_outsideCutPath
10
703.75
20
13
11
757.5
21
13
0
LINE
8
top_outsideCutPath
10
757.5
20
13
11
757.5
21
71.75
0
LINE
8
top_outsideCutPath
10
757.5
20
71.75
11
767.5
21
71.75
0
LINE
8
top_outsideCutPath
10
767.5
20
71.75
11
767.5
21
124.75
0
LINE
8
top_outsideCutPath
10
767.5
20
124.75
11
757.5
21
124.75
0
LINE
8
top_outsideCutPath
10
757.5
20
124.75
11
757.5
21
176.75
0
LINE
8
top_outsideCutPath
10
757.5
20
176.75
11
767.5
21
176.75
0
LINE
8
top_outsideCutPath
10
767.5
20
176.75
11
767.5
21
229.75
0
LINE
8
top_outsideCutPath
10
767.5
20
229.75
11
757.5
21
229.75
0
LINE
8
top_outsideCutPath
10
757.5
20
229.75
11
757.5
21
281.75
0
LINE
8
top_outsideCutPath
10
757.5
20
281.75
11
767.5
21
281.75
0
LINE
8
top_outsideCutPath
10
767.5
20
281.75
11
767.5
21
334.75
0
LINE
8
top_outsideCutPath
10
767.5
20
334.75
11
757.5
21
334.75
0
LINE
8
top_outsideCutPath
10
757.5
20
334.75
11
757.5
21
393.5
0
LINE
8
top_outsideCutPath
10
757.5
20
393.5
11
703.75
21
393.5
0
LINE
8
top_outsideCutPath
10
703.75
20
393.5
11
703.75
21
403.5
0
LINE
8
top_outsideCutPath
10
703.75
20
403.5
11
650.75
21
403.5
0
LINE
8
top_outsideCutPath
10
650.75
20
403.5
11
650.75
21
393.5
0
LINE
8
top_outsideCutPath
10
650.75
20
393.5
11
597
21
393.5
0
LINE
8
top_outsideCutPath
10
597
20
393.5
11
597
21
334.75
0
LINE
8
top_outsideCutPath
10
597
20
334.75
11
587
21
334.75
0
LINE
8
top_outsideCutPath
10
587
20
334.75
11
587
21
281.75
0
LINE
8
top_outsideCutPath
10
587
20
281.75
11
597
21
281.75
0
LINE
8
top_outsideCutPath
10
597
20
281.75
11
597
21
229.75
0
LINE
8
top_outsideCutPath
10
597
20
229.75
11
587
21
229.75
0
LINE
8
top_outsideCutPath
10
587
20
229.75
11
587
21
176.75
0
LINE
8
top_outsideCutPath
10
587
20
176.75
11
597
21
176.75
0
LINE
8
top_outsideCutPath
10
597
20
176.75
11
597
21
124.75
0
LINE
8
top_outsideCutPath
10
597
20
124.75
11
587
21
124.75
0
LINE
8
top_outsideCutPath
10
587
20
124.75
11
587
21
71.75
0
LINE
8
top_outsideCutPath
10
587
20
71.75
11
597
21
71.75
0
LINE
8
top_outsideCutPath
10
597
20
71.75
11
597
21
13
0
LINE
8
top_outsideCutPath
10
597
20
13
11
650.75
21
13
0
LINE
8
top_outsideCutPath
10
650.75
20
13
11
650.75
21
3
0
LINE
8
top_outsideCutPath
10
650.75
20
3
11
703.75
21
3
0
LINE
8
top_outsideCutPath
10
703.75
20
3
11
703.75
21
13
0
LINE
8
back_outsideCutPath
10
64.25
20
286.5
11
116.25
21
286.5
0
LINE
8
back_outsideCutPath
10
116.25
20
286.5
11
116.25
21
276.5
0
LINE
8
back_outsideCutPath
10
116.25
20
276.5
11
180.5
21
276.5
0
LINE
8
back_outsideCutPath
10
180.5
20
276.5
11
180.5
21
333.25
0
LINE
8
back_outsideCutPath
10
180.5
20
333.25
11
170.5
21
333.25
0
LINE
8
back_outsideCutPath
10
170.5
20
333.25
11
170.5
21
385.25
0
LINE
8
back_outsideCutPath
10
170.5
20
385.25
11
180.5
21
385.25
0
LINE
8
back_outsideCutPath
10
180.5
20
385.25
11
180.5
21
438.25
0
LINE
8
back_outsideCutPath
10
180.5
20
438.25
11
170.5
21
438.25
0
LINE
8
back_outsideCutPath
10
170.5
20
438.25
11
170.5
21
490.25
0
LINE
8
back_outsideCutPath
10
170.5
20
490.25
11
180.5
21
490.25
0
LINE
8
back_outsideCutPath
10
180.5
20
490.25
11
180.5
21
547
0
LINE
8
back_outsideCutPath
10
180.5
20
547
11
116.25
21
547
0
LINE
8
back_outsideCutPath
10
116.25
20
547
11
116.25
21
537
0
LINE
8
back_outsideCutPath
10
116.25
20
537
11
64.25
21
537
0
LINE
8
back_outsideCutPath
10
64.25
20
537
11
64.25
21
547
0
LINE
8
back_outsideCutPath
10
64.25
20
547
11
0
21
547
0
LINE
8
back_outsideCutPath
10
0
20
547
11
0
21
490.25
0
LINE
8
back_outsideCutPath
10
0
20
490.25
11
10
21
490.25
0
LINE
8
back_outsideCutPath
10
10
20
490.25
11
10
21
438.25
0
LINE
8
back_outsideCutPath
10
10
20
438.25
11
0
21
438.25
0
LINE
8
back_outsideCutPath
10
0
20
438.25
11
0
21
385.25
0
LINE
8
back_outsideCutPath
10
0
20
385.25
11
10
21
385.25
0
LINE
8
back_outsideCutPath
10
10
20
385.25
11
10
21
333.25
0
LINE
8
back_outsideCutPath
10
10
20
333.25
11
0
21
333.25
0
LINE
8
back_outsideCutPath
10
0
20
333.25
11
0
21
276.5
0
LINE
8
back_outsideCutPath
10
0
20
276.5
11
64.25
21
276.5
0
LINE
8
back_outsideCutPath
10
64.25
20
276.5
11
64.25
21
286.5
0
LINE
8
right_outsideCutPath
10
252.75
20
286.5
11
304.75
21
286.5
0
LINE
8
right_outsideCutPath
10
304.75
20
286.5
11
304.75
21
276.5
0
LINE
8
right_outsideCutPath
10
304.75
20
276.5
11
357.75
21
276.5
0
LINE
8
right_outsideCutPath
10
357.75
20
276.5
11
357.75
21
286.5
0
LINE
8
right_outsideCutPath
10
357.75
20
286.5
11
409.75
21
286.5
0
LINE
8
right_outsideCutPath
10
409.75
20
286.5
11
409.75
21
276.5
0
LINE
8
right_outsideCutPath
10
409.75
20
276.5
11
462.75
21
276.5
0
LINE
8
right_outsideCutPath
10
462.75
20
276.5
11
462.75
21
286.5
0
LINE
8
right_outsideCutPath
10
462.75
20
286.5
11
514.75
21
286.5
0
LINE
8
right_outsideCutPath
10
514.75
20
286.5
11
514.75
21
276.5
0
LINE
8
right_outsideCutPath
10
514.75
20
276.5
11
574
21
276.5
0
LINE
8
right_outsideCutPath
10
574
20
276.5
11
574
21
332.75
0
LINE
8
right_outsideCutPath
10
574
20
332.75
11
584
21
332.75
0
LINE
8
right_outsideCutPath
10
584
20
332.75
11
584
21
385.75
0
LINE
8
right_outsideCutPath
10
584
20
385.75
11
574
21
385.75
0
LINE
8
right_outsideCutPath
10
574
20
385.75
11
574
21
437.75
0
LINE
8
right_outsideCutPath
10
574
20
437.75
11
584
21
437.75
0
LINE
8
right_outsideCutPath
10
584
20
437.75
11
584
21
490.75
0
LINE
8
right_outsideCutPath
10
584
20
490.75
11
574
21
490.75
0
LINE
8
right_outsideCutPath
10
574
20
490.75
11
574
21
547
0
LINE
8
right_outsideCutPath
10
574
20
547
11
514.75
21
547
0
LINE
8
right_outsideCutPath
10
514.75
20
547
11
514.75
21
537
0
LINE
8
right_outsideCutPath
10
514.75
20
537
11
462.75
21
537
0
LINE
8
right_outsideCutPath
10
462.75
20
537
11
462.75
21
547
0
LINE
8
right_outsideCutPath
10
462.75
20
547
11
409.75
21
547
0
LINE
8
right_outsideCutPath
10
409.75
20
547
11
409.75
21
537
0
LINE
8
right_outsideCutPath
10
409.75
20
537
11
357.75
21
537
0
LINE
8
right_outsideCutPath
10
357.75
20
537
11
357.75
21
547
0
LINE
8
right_outsideCutPath
10
357.75
20
547
11
304.75
21
547
0
LINE
8
right_outsideCutPath
10
304.75
20
547
11
304.75
21
537
0
LINE
8
right_outsideCutPath
10
304.75
20
537
11
252.75
21
537
0
LINE
8
right_outsideCutPath
10
252.75
20
537
11
252.75
21
547
0
LINE
8
right_outsideCutPath
10
252.75
20
547
11
193.5
21
547
0
LINE
8
right_outsideCutPath
10
193.5
20
547
11
193.5
21
490.75
0
LINE
8
right_outsideCutPath
10
193.5
20
490.75
11
183.5
21
490.75
0
LINE
8
right_outsideCutPath
10
183.5
20
490.75
11
183.5
21
437.75
0
LINE
8
right_outsideCutPath
10
183.5
20
437.75
11
193.5
21
437.75
0
LINE
8
right_outsideCutPath
10
193.5
20
437.75
11
193.5
21
385.75
0
LINE
8
right_outsideCutPath
10
193.5
20
385.75
11
183.5
21
385.75
0
LINE
8
right_outsideCutPath
10
183.5
20
385.75
11
183.5
21
332.75
0
LINE
8
right_outsideCutPath
10
183.5
20
332.75
11
193.5
21
332.75
0
LINE
8
right_outsideCutPath
10
193.5
20
332.75
11
193.5
21
276.5
0
LINE
8
right_outsideCutPath
10
193.5
20
276.5
11
252.75
21
276.5
0
LINE
8
right_outsideCutPath
10
252.75
20
276.5
11
252.75
21
286.5
0
LINE
8
bottom_outsideCutPath
10
703.75
20
416.5
11
757.5
21
416.5
0
LINE
8
bottom_outsideCutPath
10
757.5
20
416.5
11
757.5
21
475.25
0
LINE
8
bottom_outsideCutPath
10
757.5
20
475.25
11
767.5
21
475.25
0
LINE
8
bottom_outsideCutPath
10
767.5
20
475.25
11
767.5
21
528.25
0
LINE
8
bottom_outsideCutPath
10
767.5
20
528.25
11
757.5
21
528.25
0
LINE
8
bottom_outsideCutPath
10
757.5
20
528.25
11
757.5
21
580.25
0
LINE
8
bottom_outsideCutPath
10
757.5
20
580.25
11
767.5
21
580.25
0
LINE
8
bottom_outsideCutPath
10
767.5
20
580.25
11
767.5
21
633.25
0
LINE
8
bottom_outsideCutPath
10
767.5
20
633.25
11
757.5
21
633.25
0
LINE
8
bottom_outsideCutPath
10
757.5
20
633.25
11
757.5
21
685.25
0
LINE
8
bottom_outsideCutPath
10
757.5
20
685.25
11
767.5
21
685.25
0
LINE
8
bottom_outsideCutPath
10
767.5
20
685.25
11
767.5
21
738.25
0
LINE
8
bottom_outsideCutPath
10
767.5
20
738.25
11
757.5
21
738.25
0
LINE
8
bottom_outsideCutPath
10
757.5
20
738.25
11
757.5
21
797
0
LINE
8
bottom_outsideCutPath
10
757.5
20
797
11
703.75
21
797
0
LINE
8
bottom_outsideCutPath
10
703.75
20
797
11
703.75
21
807
0
LINE
8
bottom_outsideCutPath
10
703.75
20
807
11
650.75
21
807
0
LINE
8
bottom_outsideCutPath
10
650.75
20
807
11
650.75
21
797
0
LINE
8
bottom_outsideCutPath
10
650.75
20
797
11
597
21
797
0
LINE
8
bottom_outsideCutPath
10
597
20
797
11
597
21
738.25
0
LINE
8
bottom_outsideCutPath
10
597
20
738.25
11
587
21
738.25
0
LINE
8
bottom_outsideCutPath
10
587
20
738.25
11
587
21
685.25
0
LINE
8
bottom_outsideCutPath
10
587
20
685.25
11
597
21
685.25
0
LINE
8
bottom_outsideCutPath
10
597
20
685.25
11
597
21
633.25
0
LINE
8
bottom_outsideCutPath
10
597
20
633.25
11
587
21
633.25
0
LINE
8
bottom_outsideCutPath
10
587
20
633.25
11
587
21
580.25
0
LINE
8
bottom_outsideCutPath
10
587
20
580.25
11
597
21
580.25
0
LINE
8
bottom_outsideCutPath
10
597
20
580.25
11
597
21
528.25
0
LINE
8
bottom_outsideCutPath
10
597
20
528.25
11
587
21
528.25
0
LINE
8
bottom_outsideCutPath
10
587
20
528.25
11
587
21
475.25
0
LINE
8
bottom_outsideCutPath
10
587
20
475.25
11
597
21
475.25
0
LINE
8
bottom_outsideCutPath
10
597
20
475.25
11
597
21
416.5
0
LINE
8
bottom_outsideCutPath
10
597
20
416.5
11
650.75
21
416.5
0
LINE
8
bottom_outsideCutPath
10
650.75
20
416.5
11
650.75
21
406.5
0
LINE
8
bottom_outsideCutPath
10
650.75
20
406.5
11
703.75
21
406.5
0
LINE
8
bottom_outsideCutPath
10
703.75
20
406.5
11
703.75
21
416.5
0
ENDSEC
0
EOF