<svg width="766mm" height="803mm" viewBox="0 0 766 803" xmlns="http://www.w3.org/2000/svg" version="1.1" preserveAspectRatio="xMidYMid meet"><g id="svgGroup" stroke-linecap="round" fill-rule="evenodd" font-size="9pt" stroke="#000" stroke-width="0.25mm" fill="none" style="stroke:#000;stroke-width:0.25mm;fill:none"><path d="M 0 533 L 0 589.25 L 10 589.25 L 10 641.75 L 0 641.75 L 0 694.25 L 10 694.25 L 10 746.75 L 0 746.75 L 0 803 L 63.75 803 L 63.75 793 L 116.25 793 L 116.25 803 L 168.75 803 L 180 803 L 180 746.75 L 170 746.75 L 170 694.25 L 180 694.25 L 180 641.75 L 170 641.75 L 170 589.25 L 180 589.25 L 180 533 L 116.25 533 L 116.25 543 L 63.75 543 L 63.75 533 L 11.25 533 L 0 533 Z" id="front_outsideCutPath" stroke="#FF0000" stroke-width="0.1" style="stroke:#FF0000;stroke-width:0.1" vector-effect="non-scaling-stroke"/><path d="M 116.235 681.596 L 113.317 681.596 L 113.317 669.133 A 8.248 8.248 0 0 0 113.223 667.84 Q 113.114 667.159 112.882 666.616 A 3.471 3.471 0 0 0 112.245 665.618 A 3.29 3.29 0 0 0 110.896 664.757 Q 110.366 664.57 109.714 664.5 A 7.736 7.736 0 0 0 108.888 664.458 A 8.831 8.831 0 0 0 107.235 664.602 Q 106.315 664.777 105.606 665.167 A 4.114 4.114 0 0 0 104.458 666.092 A 4.77 4.77 0 0 0 103.629 667.542 Q 103.052 669.079 103.052 671.489 L 103.052 681.596 L 100.134 681.596 L 100.134 662.331 L 102.507 662.331 L 102.981 664.967 L 103.122 664.967 Q 104.019 663.544 105.636 662.761 Q 107.253 661.979 109.239 661.979 Q 111.548 661.979 113.098 662.717 A 5.244 5.244 0 0 1 114.478 663.658 Q 116.235 665.337 116.235 669.028 L 116.235 681.596 Z M 60.179 662.331 L 60.179 664.598 L 55.274 664.598 L 55.274 681.596 L 52.356 681.596 L 52.356 664.598 L 48.911 664.598 L 48.911 663.28 L 52.356 662.225 L 52.356 661.153 A 11.826 11.826 0 0 1 52.633 658.473 Q 53.486 654.818 56.981 654.184 A 8.869 8.869 0 0 1 58.562 654.051 A 9.397 9.397 0 0 1 59.891 654.153 Q 60.926 654.301 62.147 654.667 L 61.392 657.005 Q 59.704 656.46 58.509 656.46 A 3.935 3.935 0 0 0 57.56 656.567 A 2.527 2.527 0 0 0 56.065 657.558 A 3.376 3.376 0 0 0 55.619 658.458 Q 55.323 659.337 55.281 660.644 A 13.777 13.777 0 0 0 55.274 661.083 L 55.274 662.331 L 60.179 662.331 Z M 131.089 679.188 L 131.089 681.421 A 2.87 2.87 0 0 1 130.748 681.556 Q 130.326 681.696 129.691 681.798 A 12.647 12.647 0 0 1 128.867 681.906 Q 128.478 681.943 128.129 681.947 A 7.481 7.481 0 0 1 128.03 681.948 A 7.621 7.621 0 0 1 125.784 681.646 Q 123.316 680.884 122.669 678.202 A 9.172 9.172 0 0 1 122.44 676.059 L 122.44 664.598 L 119.681 664.598 L 119.681 663.192 L 122.44 661.979 L 123.671 657.866 L 125.358 657.866 L 125.358 662.331 L 130.948 662.331 L 130.948 664.598 L 125.358 664.598 L 125.358 675.936 A 5.876 5.876 0 0 0 125.443 676.968 Q 125.544 677.534 125.766 677.982 A 2.83 2.83 0 0 0 126.185 678.608 A 2.711 2.711 0 0 0 127.851 679.495 A 3.9 3.9 0 0 0 128.452 679.54 A 9.583 9.583 0 0 0 129.856 679.439 A 8.831 8.831 0 0 0 129.946 679.425 Q 130.634 679.316 131.05 679.199 A 4.38 4.38 0 0 0 131.089 679.188 Z M 74.786 662.19 L 74.382 664.897 A 12.86 12.86 0 0 0 73.457 664.726 Q 72.815 664.633 72.272 664.633 A 5.056 5.056 0 0 0 68.537 666.247 A 6.917 6.917 0 0 0 68.273 666.532 A 6.663 6.663 0 0 0 66.666 670.273 A 8.857 8.857 0 0 0 66.612 671.26 L 66.612 681.596 L 63.694 681.596 L 63.694 662.331 L 66.103 662.331 L 66.437 665.899 L 66.577 665.899 A 9.854 9.854 0 0 1 67.679 664.325 A 7.527 7.527 0 0 1 69.161 662.999 Q 70.673 661.979 72.483 661.979 A 13.396 13.396 0 0 1 73.683 662.03 A 9.777 9.777 0 0 1 74.786 662.19 Z M 94.751 674.878 A 15.073 15.073 0 0 0 95.019 671.946 A 17.126 17.126 0 0 0 95.012 671.483 Q 94.897 667.221 92.637 664.669 A 7.639 7.639 0 0 0 89.09 662.381 A 9.805 9.805 0 0 0 86.212 661.979 A 11.333 11.333 0 0 0 84.176 662.154 A 7.718 7.718 0 0 0 79.673 664.607 A 8.062 8.062 0 0 0 78.683 665.98 Q 77.92 667.309 77.583 669.016 A 15.151 15.151 0 0 0 77.317 671.946 Q 77.317 674.987 78.407 677.255 A 9.591 9.591 0 0 0 78.62 677.67 A 7.9 7.9 0 0 0 81.501 680.735 A 8.125 8.125 0 0 0 83.366 681.564 A 9.37 9.37 0 0 0 86.089 681.948 Q 90.272 681.948 92.646 679.302 Q 94.221 677.546 94.751 674.878 Z M 80.341 671.946 A 14.777 14.777 0 0 0 80.481 674.057 Q 80.636 675.128 80.963 675.996 A 6.122 6.122 0 0 0 81.817 677.571 A 4.783 4.783 0 0 0 84.932 679.405 A 7.247 7.247 0 0 0 86.159 679.505 A 6.778 6.778 0 0 0 87.947 679.282 A 4.717 4.717 0 0 0 90.51 677.58 A 6.264 6.264 0 0 0 91.485 675.68 Q 91.995 674.119 91.995 671.946 Q 91.995 668.272 90.51 666.365 Q 89.024 664.458 86.124 664.458 Q 83.259 664.458 81.8 666.338 Q 80.341 668.219 80.341 671.946 Z" id="front_labelLayer" stroke="#777777" fill="#777777" style="stroke:#777777;fill:#777777" vector-effect="non-scaling-stroke"/><path d="M 193 533 L 193 589.25 L 183 589.25 L 183 641.75 L 193 641.75 L 193 694.25 L 183 694.25 L 183 746.75 L 193 746.75 L 193 803 L 251.75 803 L 251.75 793 L 304.25 793 L 304.25 803 L 356.75 803 L 356.75 793 L 409.25 793 L 409.25 803 L 461.75 803 L 461.75 793 L 514.25 793 L 514.25 803 L 566.75 803 L 573 803 L 573 746.75 L 583 746.75 L 583 694.25 L 573 694.25 L 573 641.75 L 583 641.75 L 583 589.25 L 573 589.25 L 573 533 L 514.25 533 L 514.25 543 L 461.75 543 L 461.75 533 L 409.25 533 L 409.25 543 L 356.75 543 L 356.75 533 L 304.25 533 L 304.25 543 L 251.75 543 L 251.75 533 L 199.25 533 L 193 533 Z" id="left_outsideCutPath" stroke="#FF0000" stroke-width="0.1" style="stroke:#FF0000;stroke-width:0.1" vector-effect="non-scaling-stroke"/><path d="M 402.208 659.496 L 402.208 662.897 L 394.852 662.897 L 394.852 688.394 L 390.475 688.394 L 390.475 662.897 L 385.307 662.897 L 385.307 660.92 L 390.475 659.338 L 390.475 657.729 A 17.739 17.739 0 0 1 390.889 653.709 Q 392.438 647.077 399.783 647.077 A 14.095 14.095 0 0 1 401.777 647.229 Q 403.33 647.452 405.162 648 L 404.028 651.507 Q 402.23 650.926 400.804 650.758 A 9.413 9.413 0 0 0 399.704 650.689 A 5.903 5.903 0 0 0 398.281 650.85 A 3.791 3.791 0 0 0 396.039 652.337 A 5.064 5.064 0 0 0 395.369 653.687 Q 394.925 655.006 394.862 656.966 A 20.665 20.665 0 0 0 394.852 657.624 L 394.852 659.496 L 402.208 659.496 Z M 381.721 671.968 L 381.721 674.736 L 361.814 674.736 Q 361.946 679.825 364.385 682.462 A 7.953 7.953 0 0 0 368.561 684.815 A 12.051 12.051 0 0 0 371.253 685.099 A 23.117 23.117 0 0 0 379.911 683.384 A 26.49 26.49 0 0 0 380.482 683.147 L 380.482 687.05 A 26.276 26.276 0 0 1 378.087 687.954 A 20.094 20.094 0 0 1 376.092 688.487 A 18.374 18.374 0 0 1 374.269 688.768 Q 373.371 688.864 372.356 688.9 A 35.66 35.66 0 0 1 371.095 688.922 A 17.009 17.009 0 0 1 366.839 688.418 A 12.044 12.044 0 0 1 360.983 685.019 Q 357.492 681.342 357.291 674.972 A 25.001 25.001 0 0 1 357.279 674.183 A 22.983 22.983 0 0 1 357.704 669.625 Q 358.265 666.854 359.565 664.701 A 12.961 12.961 0 0 1 360.72 663.082 A 11.216 11.216 0 0 1 368.895 659.005 A 15.473 15.473 0 0 1 369.961 658.969 A 13.335 13.335 0 0 1 373.716 659.471 A 10.147 10.147 0 0 1 378.557 662.541 A 12.238 12.238 0 0 1 381.33 668.134 A 17.815 17.815 0 0 1 381.721 671.968 Z M 420.771 684.782 L 420.771 688.131 A 4.305 4.305 0 0 1 420.26 688.333 Q 419.716 688.514 418.936 688.653 A 16.368 16.368 0 0 1 418.675 688.698 A 18.971 18.971 0 0 1 417.438 688.859 Q 416.855 688.914 416.331 688.921 A 11.219 11.219 0 0 1 416.183 688.922 A 11.432 11.432 0 0 1 412.814 688.468 Q 409.111 687.326 408.142 683.303 A 13.758 13.758 0 0 1 407.798 680.089 L 407.798 662.897 L 403.659 662.897 L 403.659 660.788 L 407.798 658.969 L 409.644 652.799 L 412.175 652.799 L 412.175 659.496 L 420.56 659.496 L 420.56 662.897 L 412.175 662.897 L 412.175 679.904 Q 412.175 682.515 413.415 683.912 A 4.066 4.066 0 0 0 415.914 685.243 A 5.85 5.85 0 0 0 416.816 685.309 A 14.375 14.375 0 0 0 418.922 685.159 A 13.247 13.247 0 0 0 419.057 685.138 Q 420.138 684.967 420.771 684.782 Z M 349.606 647.367 L 349.606 688.394 L 345.229 688.394 L 345.229 647.367 L 349.606 647.367 Z M 361.919 671.177 L 377.028 671.177 A 14.915 14.915 0 0 0 376.848 668.779 Q 376.451 666.349 375.182 664.835 A 5.996 5.996 0 0 0 371.571 662.78 A 8.995 8.995 0 0 0 369.909 662.634 A 8.628 8.628 0 0 0 367.416 662.976 A 6.666 6.666 0 0 0 364.358 664.901 Q 362.486 666.953 362.005 670.429 A 16.536 16.536 0 0 0 361.919 671.177 Z" id="left_labelLayer" stroke="#777777" fill="#777777" style="stroke:#777777;fill:#777777" vector-effect="non-scaling-stroke"/><path d="M 596 413 L 596 471.75 L 586 471.75 L 586 524.25 L 596 524.25 L 596 576.75 L 586 576.75 L 586 629.25 L 596 629.25 L 596 681.75 L 586 681.75 L 586 734.25 L 596 734.25 L 596 786.75 L 596 793 L 649.75 793 L 649.75 803 L 702.25 803 L 702.25 793 L 754.75 793 L 756 793 L 756 734.25 L 766 734.25 L 766 681.75 L 756 681.75 L 756 629.25 L 766 629.25 L 766 576.75 L 756 576.75 L 756 524.25 L 766 524.25 L 766 471.75 L 756 471.75 L 756 419.25 L 756 413 L 702.25 413 L 702.25 403 L 649.75 403 L 649.75 413 L 597.25 413 L 596 413 Z" id="top_outsideCutPath" stroke="#FF0000" stroke-width="0.1" style="stroke:#FF0000;stroke-width:0.1" vector-effect="non-scaling-stroke"/><path d="M 688.937 608.063 L 688.726 608.063 A 27.615 27.615 0 0 1 688.908 610.103 A 23.14 23.14 0 0 1 688.937 611.262 L 688.937 619.189 L 686.019 619.189 L 686.019 591.275 L 688.392 591.275 L 688.797 593.912 L 688.937 593.912 A 7.855 7.855 0 0 1 690.073 592.622 A 6.074 6.074 0 0 1 691.556 591.627 A 7.308 7.308 0 0 1 693.651 591.015 A 9.458 9.458 0 0 1 694.984 590.924 A 8.944 8.944 0 0 1 697.511 591.262 A 6.611 6.611 0 0 1 700.899 593.543 Q 702.602 595.684 702.913 599.234 A 19.001 19.001 0 0 1 702.982 600.891 A 17.109 17.109 0 0 1 702.756 603.769 Q 702.493 605.303 701.928 606.534 A 8.202 8.202 0 0 1 700.864 608.265 A 6.908 6.908 0 0 1 695.954 610.846 A 9.897 9.897 0 0 1 694.984 610.893 A 8.851 8.851 0 0 1 692.76 610.621 A 7.701 7.701 0 0 1 691.548 610.198 Q 689.992 609.504 688.937 608.063 Z M 660.426 608.133 L 660.426 610.365 A 2.87 2.87 0 0 1 660.085 610.5 Q 659.663 610.64 659.028 610.743 A 12.647 12.647 0 0 1 658.204 610.85 Q 657.815 610.887 657.466 610.892 A 7.481 7.481 0 0 1 657.367 610.893 A 7.621 7.621 0 0 1 655.121 610.59 Q 652.652 609.828 652.006 607.147 A 9.172 9.172 0 0 1 651.777 605.004 L 651.777 593.543 L 649.017 593.543 L 649.017 592.137 L 651.777 590.924 L 653.008 586.811 L 654.695 586.811 L 654.695 591.275 L 660.285 591.275 L 660.285 593.543 L 654.695 593.543 L 654.695 604.881 A 5.876 5.876 0 0 0 654.78 605.913 Q 654.881 606.479 655.103 606.927 A 2.83 2.83 0 0 0 655.521 607.553 A 2.711 2.711 0 0 0 657.188 608.44 A 3.9 3.9 0 0 0 657.789 608.484 A 9.583 9.583 0 0 0 659.193 608.384 A 8.831 8.831 0 0 0 659.283 608.37 Q 659.971 608.261 660.386 608.144 A 4.38 4.38 0 0 0 660.426 608.133 Z M 680.636 603.823 A 15.073 15.073 0 0 0 680.904 600.891 A 17.126 17.126 0 0 0 680.898 600.427 Q 680.783 596.166 678.522 593.613 A 7.639 7.639 0 0 0 674.976 591.326 A 9.805 9.805 0 0 0 672.098 590.924 A 11.333 11.333 0 0 0 670.062 591.098 A 7.718 7.718 0 0 0 665.558 593.552 A 8.062 8.062 0 0 0 664.568 594.925 Q 663.805 596.254 663.469 597.961 A 15.151 15.151 0 0 0 663.203 600.891 Q 663.203 603.932 664.293 606.199 A 9.591 9.591 0 0 0 664.505 606.615 A 7.9 7.9 0 0 0 667.387 609.68 A 8.125 8.125 0 0 0 669.252 610.509 A 9.37 9.37 0 0 0 671.974 610.893 Q 676.158 610.893 678.531 608.247 Q 680.107 606.49 680.636 603.823 Z M 666.226 600.891 A 14.777 14.777 0 0 0 666.367 603.002 Q 666.522 604.073 666.848 604.941 A 6.122 6.122 0 0 0 667.703 606.516 A 4.783 4.783 0 0 0 670.818 608.35 A 7.247 7.247 0 0 0 672.045 608.449 A 6.778 6.778 0 0 0 673.833 608.227 A 4.717 4.717 0 0 0 676.395 606.524 A 6.264 6.264 0 0 0 677.371 604.625 Q 677.881 603.064 677.881 600.891 Q 677.881 597.217 676.395 595.31 Q 674.91 593.402 672.01 593.402 Q 669.144 593.402 667.685 595.283 Q 666.226 597.164 666.226 600.891 Z M 688.937 600.24 L 688.937 600.891 A 19.293 19.293 0 0 0 689.033 602.885 Q 689.297 605.416 690.291 606.7 A 4.233 4.233 0 0 0 692.438 608.149 Q 693.156 608.374 694.032 608.43 A 9.382 9.382 0 0 0 694.633 608.449 A 4.917 4.917 0 0 0 696.544 608.09 Q 697.725 607.597 698.544 606.428 A 7.055 7.055 0 0 0 699.511 604.366 Q 699.791 603.42 699.896 602.285 A 15.546 15.546 0 0 0 699.959 600.855 Q 699.959 598.491 699.349 596.849 A 6.186 6.186 0 0 0 698.544 595.327 A 4.539 4.539 0 0 0 695.224 593.436 A 6.278 6.278 0 0 0 694.562 593.402 A 8.408 8.408 0 0 0 692.992 593.539 Q 692.117 593.706 691.445 594.076 A 3.856 3.856 0 0 0 690.291 595.037 Q 689.057 596.568 688.947 599.793 A 18.571 18.571 0 0 0 688.937 600.24 Z" id="top_labelLayer" stroke="#777777" fill="#777777" style="stroke:#777777;fill:#777777" vector-effect="non-scaling-stroke"/><path d="M 0 260 L 0 316.25 L 10 316.25 L 10 368.75 L 0 368.75 L 0 421.25 L 10 421.25 L 10 473.75 L 0 473.75 L 0 530 L 63.75 530 L 63.75 520 L 116.25 520 L 116.25 530 L 168.75 530 L 180 530 L 180 473.75 L 170 473.75 L 170 421.25 L 180 421.25 L 180 368.75 L 170 368.75 L 170 316.25 L 180 316.25 L 180 260 L 116.25 260 L 116.25 270 L 63.75 270 L 63.75 260 L 11.25 260 L 0 260 Z" id="back_outsideCutPath" stroke="#FF0000" stroke-width="0.1" style="stroke:#FF0000;stroke-width:0.1" vector-effect="non-scaling-stroke"/><path d="M 114.645 398.638 L 114.785 398.638 A 17.274 17.274 0 0 1 115.213 398.061 Q 115.704 397.422 116.406 396.605 A 62.698 62.698 0 0 1 117.088 395.826 L 123.311 389.234 L 126.773 389.234 L 118.969 397.443 L 127.318 408.5 L 123.785 408.5 L 116.982 399.394 L 114.785 401.293 L 114.785 408.5 L 111.902 408.5 L 111.902 381.148 L 114.785 381.148 L 114.785 395.65 A 19.445 19.445 0 0 1 114.776 396.2 Q 114.751 397.1 114.65 398.566 A 121.752 121.752 0 0 1 114.645 398.638 Z M 55.6 406.021 L 55.389 406.021 L 54.773 408.5 L 52.682 408.5 L 52.682 381.148 L 55.6 381.148 L 55.6 387.793 A 60.838 60.838 0 0 1 55.567 389.848 Q 55.534 390.82 55.468 391.686 A 36.43 36.43 0 0 1 55.459 391.801 L 55.6 391.801 A 6.634 6.634 0 0 1 60.442 388.988 A 9.966 9.966 0 0 1 61.646 388.918 A 8.918 8.918 0 0 1 64.156 389.253 A 6.676 6.676 0 0 1 67.544 391.511 Q 69.226 393.587 69.561 397.044 A 18.73 18.73 0 0 1 69.645 398.849 A 17.109 17.109 0 0 1 69.418 401.728 Q 69.156 403.262 68.59 404.493 A 8.202 8.202 0 0 1 67.526 406.223 A 6.908 6.908 0 0 1 62.617 408.805 A 9.897 9.897 0 0 1 61.646 408.851 A 8.851 8.851 0 0 1 59.422 408.58 A 7.701 7.701 0 0 1 58.21 408.157 Q 56.654 407.463 55.6 406.021 Z M 88.752 408.5 L 86.59 408.5 L 86.01 405.758 L 85.869 405.758 A 12.096 12.096 0 0 1 84.89 406.853 Q 84.364 407.371 83.838 407.732 A 5.376 5.376 0 0 1 82.995 408.21 Q 81.563 408.851 79.418 408.851 A 8.955 8.955 0 0 1 77.596 408.677 Q 76.482 408.446 75.627 407.906 A 5.025 5.025 0 0 1 74.927 407.375 A 4.796 4.796 0 0 1 73.48 404.845 A 7.342 7.342 0 0 1 73.301 403.174 A 5.049 5.049 0 0 1 76.173 398.408 Q 78.311 397.271 82.042 397.08 A 28.502 28.502 0 0 1 82.635 397.056 L 85.904 396.951 L 85.904 395.756 A 8.381 8.381 0 0 0 85.823 394.544 Q 85.732 393.924 85.54 393.427 A 3.256 3.256 0 0 0 84.929 392.407 A 2.962 2.962 0 0 0 83.715 391.616 Q 83.23 391.439 82.628 391.37 A 7.21 7.21 0 0 0 81.809 391.326 A 9.5 9.5 0 0 0 79.622 391.599 Q 78.094 391.96 76.359 392.803 L 75.463 390.57 A 13.454 13.454 0 0 1 78.06 389.503 A 15.314 15.314 0 0 1 78.583 389.357 A 13.513 13.513 0 0 1 81.984 388.918 Q 84.139 388.918 85.596 389.516 A 4.966 4.966 0 0 1 87.091 390.447 Q 88.393 391.646 88.675 393.981 A 11.482 11.482 0 0 1 88.752 395.351 L 88.752 408.5 Z M 107.613 389.885 L 106.717 392.363 A 12.981 12.981 0 0 0 105.309 391.895 A 15.504 15.504 0 0 0 104.607 391.721 A 12.053 12.053 0 0 0 103.69 391.552 Q 103.243 391.488 102.846 391.472 A 6.468 6.468 0 0 0 102.586 391.467 Q 97.371 391.467 96.788 397.375 A 16.124 16.124 0 0 0 96.715 398.955 Q 96.715 402.506 98.147 404.404 A 4.634 4.634 0 0 0 101.15 406.198 A 7.06 7.06 0 0 0 102.393 406.303 A 12.215 12.215 0 0 0 105.762 405.812 A 15.082 15.082 0 0 0 107.332 405.265 L 107.332 407.849 A 8.3 8.3 0 0 1 105.301 408.568 Q 104.363 408.776 103.272 408.831 A 16.002 16.002 0 0 1 102.463 408.851 A 10.906 10.906 0 0 1 99.81 408.547 A 7.395 7.395 0 0 1 95.985 406.276 Q 94.004 404.052 93.734 400.234 A 17.644 17.644 0 0 1 93.691 398.99 A 16.1 16.1 0 0 1 93.941 396.062 Q 94.243 394.429 94.912 393.142 A 8.044 8.044 0 0 1 96.021 391.519 A 7.556 7.556 0 0 1 100.158 389.14 A 11.454 11.454 0 0 1 102.656 388.883 A 13.168 13.168 0 0 1 105.434 389.181 A 14.565 14.565 0 0 1 106.243 389.379 Q 107.069 389.607 107.613 389.885 Z M 61.225 391.361 Q 58.236 391.361 56.918 393.075 A 4.995 4.995 0 0 0 56.195 394.452 Q 55.707 395.82 55.619 397.898 A 22.481 22.481 0 0 0 55.6 398.849 A 19.293 19.293 0 0 0 55.695 400.843 Q 55.959 403.375 56.953 404.659 A 4.233 4.233 0 0 0 59.101 406.108 Q 59.818 406.333 60.694 406.389 A 9.382 9.382 0 0 0 61.295 406.408 A 5.817 5.817 0 0 0 62.947 406.187 A 4.196 4.196 0 0 0 65.303 404.448 Q 66.245 403.048 66.514 400.773 A 16.72 16.72 0 0 0 66.621 398.814 A 17.24 17.24 0 0 0 66.517 396.85 Q 66.27 394.701 65.436 393.404 A 4.841 4.841 0 0 0 65.303 393.207 A 4.255 4.255 0 0 0 62.594 391.492 A 6.749 6.749 0 0 0 61.225 391.361 Z M 85.834 400.765 L 85.834 399.025 L 82.916 399.148 A 21.425 21.425 0 0 0 81.204 399.273 Q 79.027 399.526 77.897 400.229 A 3.114 3.114 0 0 0 76.413 402.488 A 4.609 4.609 0 0 0 76.359 403.209 A 4.17 4.17 0 0 0 76.463 404.166 Q 76.636 404.901 77.1 405.406 A 2.599 2.599 0 0 0 77.317 405.617 A 3.176 3.176 0 0 0 78.507 406.249 Q 78.978 406.389 79.542 406.428 A 6.563 6.563 0 0 0 79.998 406.443 A 8.034 8.034 0 0 0 81.733 406.267 Q 82.942 405.999 83.834 405.327 A 4.872 4.872 0 0 0 84.278 404.949 A 4.887 4.887 0 0 0 85.642 402.509 Q 85.831 401.723 85.834 400.795 A 9.293 9.293 0 0 0 85.834 400.765 Z" id="back_labelLayer" stroke="#777777" fill="#777777" style="stroke:#777777;fill:#777777" vector-effect="non-scaling-stroke"/><path d="M 193 260 L 193 316.25 L 183 316.25 L 183 368.75 L 193 368.75 L 193 421.25 L 183 421.25 L 183 473.75 L 193 473.75 L 193 530 L 251.75 530 L 251.75 520 L 304.25 520 L 304.25 530 L 356.75 530 L 356.75 520 L 409.25 520 L 409.25 530 L 461.75 530 L 461.75 520 L 514.25 520 L 514.25 530 L 566.75 530 L 573 530 L 573 473.75 L 583 473.75 L 583 421.25 L 573 421.25 L 573 368.75 L 583 368.75 L 583 316.25 L 573 316.25 L 573 260 L 514.25 260 L 514.25 270 L 461.75 270 L 461.75 260 L 409.25 260 L 409.25 270 L 356.75 270 L 356.75 260 L 304.25 260 L 304.25 270 L 251.75 270 L 251.75 260 L 199.25 260 L 193 260 Z" id="right_outsideCutPath" stroke="#FF0000" stroke-width="0.1" style="stroke:#FF0000;stroke-width:0.1" vector-effect="non-scaling-stroke"/><path d="M 416.579 409.027 L 412.202 409.027 L 412.202 390.333 Q 412.202 388.081 411.548 386.557 A 5.207 5.207 0 0 0 410.593 385.059 A 4.935 4.935 0 0 0 408.569 383.768 Q 407.775 383.487 406.797 383.382 A 11.604 11.604 0 0 0 405.557 383.319 Q 400.996 383.319 398.899 385.798 Q 396.803 388.276 396.803 393.919 L 396.803 409.027 L 392.426 409.027 L 392.426 368 L 396.803 368 L 396.803 380.419 A 39.374 39.374 0 0 1 396.776 381.931 Q 396.727 383.191 396.592 384.137 L 396.856 384.137 A 8.745 8.745 0 0 1 399.92 381.188 A 10.683 10.683 0 0 1 400.534 380.854 A 11.236 11.236 0 0 1 404.222 379.76 A 14.205 14.205 0 0 1 405.979 379.654 Q 409.465 379.654 411.805 380.744 A 7.889 7.889 0 0 1 413.929 382.172 A 7.621 7.621 0 0 1 415.809 385.124 Q 416.26 386.351 416.447 387.874 A 18.927 18.927 0 0 1 416.579 390.175 L 416.579 409.027 Z M 376.5 380.129 L 386.494 380.129 L 386.494 382.897 L 381.141 383.53 A 7.113 7.113 0 0 1 381.757 384.446 Q 382.027 384.919 382.272 385.486 A 13.493 13.493 0 0 1 382.459 385.943 A 8.421 8.421 0 0 1 382.958 387.954 A 10.814 10.814 0 0 1 383.04 389.305 A 10.034 10.034 0 0 1 382.579 392.415 A 8.116 8.116 0 0 1 380.139 396.081 Q 377.239 398.612 372.176 398.612 Q 370.884 398.612 369.75 398.401 Q 368.155 399.244 367.47 400.336 A 3.293 3.293 0 0 0 366.956 402.119 Q 366.956 403.269 367.872 403.837 A 2.429 2.429 0 0 0 367.931 403.872 Q 368.907 404.439 371.28 404.439 L 376.395 404.439 A 17.917 17.917 0 0 1 379.116 404.632 Q 380.539 404.851 381.688 405.319 A 7.91 7.91 0 0 1 383.606 406.417 A 6.403 6.403 0 0 1 385.986 410.496 A 9.617 9.617 0 0 1 386.125 412.165 A 9.477 9.477 0 0 1 385.583 415.443 Q 384.709 417.831 382.424 419.383 A 10.406 10.406 0 0 1 382.275 419.482 A 13.126 13.126 0 0 1 378.891 421.016 Q 375.657 422 371.042 422 Q 365.374 422 362.302 419.89 Q 359.23 417.781 359.23 413.931 Q 359.23 411.295 360.917 409.37 A 7.643 7.643 0 0 1 363.543 407.457 A 10.833 10.833 0 0 1 365.664 406.76 Q 364.556 406.259 363.805 405.204 A 4.058 4.058 0 0 1 363.06 403.011 A 5.026 5.026 0 0 1 363.053 402.752 A 5.005 5.005 0 0 1 363.306 401.14 A 4.436 4.436 0 0 1 363.897 399.983 A 6.265 6.265 0 0 1 364.724 399.05 Q 365.164 398.638 365.729 398.235 A 13.749 13.749 0 0 1 366.56 397.689 A 7.673 7.673 0 0 1 363.227 395.021 A 9.511 9.511 0 0 1 362.908 394.552 A 9.048 9.048 0 0 1 361.52 390.191 A 11.043 11.043 0 0 1 361.498 389.489 A 12.646 12.646 0 0 1 361.83 386.499 A 8.32 8.32 0 0 1 364.345 382.172 A 9.295 9.295 0 0 1 367.913 380.205 Q 369.33 379.771 371.035 379.649 A 19.331 19.331 0 0 1 372.414 379.601 A 16.777 16.777 0 0 1 374.633 379.742 A 12.778 12.778 0 0 1 376.5 380.129 Z M 438.859 405.415 L 438.859 408.764 A 4.305 4.305 0 0 1 438.348 408.966 Q 437.804 409.147 437.024 409.286 A 16.368 16.368 0 0 1 436.763 409.33 A 18.971 18.971 0 0 1 435.526 409.491 Q 434.943 409.547 434.419 409.554 A 11.219 11.219 0 0 1 434.271 409.555 A 11.432 11.432 0 0 1 430.902 409.101 Q 427.199 407.958 426.23 403.936 A 13.758 13.758 0 0 1 425.886 400.722 L 425.886 383.53 L 421.747 383.53 L 421.747 381.421 L 425.886 379.601 L 427.732 373.431 L 430.263 373.431 L 430.263 380.129 L 438.648 380.129 L 438.648 383.53 L 430.263 383.53 L 430.263 400.537 Q 430.263 403.147 431.502 404.545 A 4.066 4.066 0 0 0 434.002 405.875 A 5.85 5.85 0 0 0 434.904 405.942 A 14.375 14.375 0 0 0 437.01 405.792 A 13.247 13.247 0 0 0 437.145 405.771 Q 438.226 405.599 438.859 405.415 Z M 343.779 379.918 L 343.172 383.978 A 19.291 19.291 0 0 0 341.785 383.722 Q 341.093 383.622 340.478 383.594 A 10.266 10.266 0 0 0 340.008 383.583 Q 336.501 383.583 334.01 386.431 A 9.995 9.995 0 0 0 331.599 392.043 A 13.285 13.285 0 0 0 331.518 393.523 L 331.518 409.027 L 327.141 409.027 L 327.141 380.129 L 330.753 380.129 L 331.254 385.481 L 331.465 385.481 A 14.781 14.781 0 0 1 333.118 383.12 A 11.291 11.291 0 0 1 335.341 381.131 A 8.725 8.725 0 0 1 340.325 379.601 A 20.094 20.094 0 0 1 342.124 379.678 A 14.666 14.666 0 0 1 343.779 379.918 Z M 353.561 380.129 L 353.561 409.027 L 349.184 409.027 L 349.184 380.129 L 353.561 380.129 Z M 374.998 408.368 L 369.75 408.368 A 10.061 10.061 0 0 0 367.937 408.521 Q 366.908 408.71 366.094 409.132 A 5.127 5.127 0 0 0 365.11 409.792 A 4.612 4.612 0 0 0 363.595 412.407 A 7.004 7.004 0 0 0 363.449 413.879 A 4.396 4.396 0 0 0 363.739 415.509 Q 364.206 416.69 365.426 417.438 A 7.01 7.01 0 0 0 367.15 418.177 Q 368.775 418.648 371.059 418.651 A 22.485 22.485 0 0 0 371.095 418.651 Q 376.018 418.651 378.658 417.336 A 7.27 7.27 0 0 0 379.256 417.003 A 6.385 6.385 0 0 0 380.737 415.764 A 4.785 4.785 0 0 0 381.906 412.534 Q 381.906 411.08 381.349 410.177 A 2.759 2.759 0 0 0 380.456 409.278 Q 379.351 408.585 376.763 408.42 A 27.85 27.85 0 0 0 374.998 408.368 Z M 365.822 389.384 A 8.544 8.544 0 0 0 365.998 391.175 Q 366.236 392.286 366.797 393.118 A 4.683 4.683 0 0 0 367.536 393.972 Q 369.08 395.373 371.715 395.512 A 11.27 11.27 0 0 0 372.308 395.527 Q 377.366 395.527 378.431 391.649 A 8.865 8.865 0 0 0 378.715 389.305 A 9.411 9.411 0 0 0 378.394 386.727 Q 377.271 382.792 372.229 382.792 A 9.184 9.184 0 0 0 370.358 382.971 Q 369.21 383.21 368.337 383.768 A 5.038 5.038 0 0 0 367.483 384.453 A 5.253 5.253 0 0 0 366.212 386.594 Q 365.944 387.423 365.86 388.431 A 11.514 11.514 0 0 0 365.822 389.384 Z M 348.877 371.496 A 4.85 4.85 0 0 0 348.815 372.298 A 5.168 5.168 0 0 0 348.838 372.792 Q 348.88 373.234 349.002 373.595 A 2.26 2.26 0 0 0 349.553 374.499 A 2.456 2.456 0 0 0 350.442 375.065 A 2.78 2.78 0 0 0 351.399 375.224 Q 352.454 375.224 353.218 374.499 A 2.136 2.136 0 0 0 353.635 373.947 Q 353.983 373.293 353.983 372.298 A 5.007 5.007 0 0 0 353.961 371.824 Q 353.855 370.702 353.218 370.109 A 2.579 2.579 0 0 0 351.399 369.397 A 3.341 3.341 0 0 0 351.178 369.405 A 2.531 2.531 0 0 0 349.553 370.096 A 2.047 2.047 0 0 0 349.101 370.739 Q 348.948 371.073 348.877 371.496 Z" id="right_labelLayer" stroke="#777777" fill="#777777" style="stroke:#777777;fill:#777777" vector-effect="non-scaling-stroke"/><path d="M 596 10 L 596 68.75 L 586 68.75 L 586 121.25 L 596 121.25 L 596 173.75 L 586 173.75 L 586 226.25 L 596 226.25 L 596 278.75 L 586 278.75 L 586 331.25 L 596 331.25 L 596 383.75 L 596 390 L 649.75 390 L 649.75 400 L 702.25 400 L 702.25 390 L 754.75 390 L 756 390 L 756 331.25 L 766 331.25 L 766 278.75 L 756 278.75 L 756 226.25 L 766 226.25 L 766 173.75 L 756 173.75 L 756 121.25 L 766 121.25 L 766 68.75 L 756 68.75 L 756 16.25 L 756 10 L 702.25 10 L 702.25 0 L 649.75 0 L 649.75 10 L 597.25 10 L 596 10 Z" id="bottom_outsideCutPath" stroke="#FF0000" stroke-width="0.1" style="stroke:#FF0000;stroke-width:0.1" vector-effect="non-scaling-stroke"/><path d="M 735.221 213.5 L 732.303 213.5 L 732.303 200.966 A 8.608 8.608 0 0 0 732.216 199.701 Q 732.01 198.322 731.318 197.512 A 3.07 3.07 0 0 0 729.891 196.589 Q 729.382 196.425 728.762 196.379 A 6.773 6.773 0 0 0 728.26 196.361 Q 726.349 196.361 725.139 197.13 A 3.864 3.864 0 0 0 724.234 197.925 A 4.822 4.822 0 0 0 723.417 199.405 Q 722.937 200.75 722.934 202.712 A 16.241 16.241 0 0 0 722.934 202.742 L 722.934 213.5 L 720.016 213.5 L 720.016 200.966 A 8.608 8.608 0 0 0 719.929 199.701 Q 719.723 198.322 719.031 197.512 Q 718.047 196.361 715.955 196.361 A 7.247 7.247 0 0 0 714.456 196.506 Q 713.531 196.701 712.842 197.161 A 3.825 3.825 0 0 0 711.938 198.004 A 4.893 4.893 0 0 0 711.213 199.383 Q 710.664 200.935 710.664 203.392 L 710.664 213.5 L 707.746 213.5 L 707.746 194.234 L 710.119 194.234 L 710.594 196.871 L 710.734 196.871 Q 711.56 195.464 713.063 194.673 A 6.928 6.928 0 0 1 715.8 193.906 A 8.367 8.367 0 0 1 716.43 193.882 A 9.553 9.553 0 0 1 718.58 194.106 Q 719.903 194.412 720.825 195.136 A 4.982 4.982 0 0 1 722.336 197.152 L 722.476 197.152 A 6.093 6.093 0 0 1 724.771 194.874 A 7.32 7.32 0 0 1 724.973 194.761 A 7.385 7.385 0 0 1 727.682 193.937 A 9.209 9.209 0 0 1 728.699 193.882 Q 731.969 193.882 733.595 195.561 Q 734.778 196.783 735.1 199.073 A 13.384 13.384 0 0 1 735.221 200.931 L 735.221 213.5 Z M 619.697 211.021 L 619.486 211.021 L 618.871 213.5 L 616.779 213.5 L 616.779 186.148 L 619.697 186.148 L 619.697 192.793 A 60.838 60.838 0 0 1 619.664 194.848 Q 619.631 195.82 619.565 196.685 A 36.43 36.43 0 0 1 619.557 196.8 L 619.697 196.8 A 6.634 6.634 0 0 1 624.54 193.988 A 9.966 9.966 0 0 1 625.744 193.918 A 8.918 8.918 0 0 1 628.254 194.252 A 6.676 6.676 0 0 1 631.642 196.51 Q 633.324 198.587 633.659 202.044 A 18.73 18.73 0 0 1 633.742 203.849 A 17.109 17.109 0 0 1 633.515 206.728 Q 633.253 208.262 632.687 209.492 A 8.202 8.202 0 0 1 631.624 211.223 A 6.908 6.908 0 0 1 626.714 213.805 A 9.897 9.897 0 0 1 625.744 213.851 A 8.851 8.851 0 0 1 623.52 213.58 A 7.701 7.701 0 0 1 622.308 213.157 Q 620.752 212.462 619.697 211.021 Z M 669.443 211.091 L 669.443 213.324 A 2.87 2.87 0 0 1 669.103 213.459 Q 668.68 213.599 668.046 213.702 A 12.647 12.647 0 0 1 667.221 213.809 Q 666.832 213.846 666.484 213.85 A 7.481 7.481 0 0 1 666.385 213.851 A 7.621 7.621 0 0 1 664.139 213.549 Q 661.67 212.787 661.024 210.105 A 9.172 9.172 0 0 1 660.795 207.962 L 660.795 196.501 L 658.035 196.501 L 658.035 195.095 L 660.795 193.882 L 662.025 189.769 L 663.713 189.769 L 663.713 194.234 L 669.303 194.234 L 669.303 196.501 L 663.713 196.501 L 663.713 207.839 A 5.876 5.876 0 0 0 663.798 208.871 Q 663.899 209.438 664.121 209.886 A 2.83 2.83 0 0 0 664.539 210.511 A 2.711 2.711 0 0 0 666.205 211.398 A 3.9 3.9 0 0 0 666.807 211.443 A 9.583 9.583 0 0 0 668.21 211.342 A 8.831 8.831 0 0 0 668.301 211.329 Q 668.988 211.22 669.404 211.103 A 4.38 4.38 0 0 0 669.443 211.091 Z M 682.152 211.091 L 682.152 213.324 A 2.87 2.87 0 0 1 681.812 213.459 Q 681.389 213.599 680.755 213.702 A 12.647 12.647 0 0 1 679.93 213.809 Q 679.541 213.846 679.193 213.85 A 7.481 7.481 0 0 1 679.094 213.851 A 7.621 7.621 0 0 1 676.848 213.549 Q 674.379 212.787 673.733 210.105 A 9.172 9.172 0 0 1 673.504 207.962 L 673.504 196.501 L 670.744 196.501 L 670.744 195.095 L 673.504 193.882 L 674.734 189.769 L 676.422 189.769 L 676.422 194.234 L 682.012 194.234 L 682.012 196.501 L 676.422 196.501 L 676.422 207.839 A 5.876 5.876 0 0 0 676.507 208.871 Q 676.608 209.438 676.83 209.886 A 2.83 2.83 0 0 0 677.248 210.511 A 2.711 2.711 0 0 0 678.914 211.398 A 3.9 3.9 0 0 0 679.516 211.443 A 9.583 9.583 0 0 0 680.919 211.342 A 8.831 8.831 0 0 0 681.01 211.329 Q 681.697 211.22 682.113 211.103 A 4.38 4.38 0 0 0 682.152 211.091 Z M 655.201 206.781 A 15.073 15.073 0 0 0 655.469 203.849 A 17.126 17.126 0 0 0 655.462 203.386 Q 655.347 199.124 653.087 196.572 A 7.639 7.639 0 0 0 649.541 194.285 A 9.805 9.805 0 0 0 646.662 193.882 A 11.333 11.333 0 0 0 644.626 194.057 A 7.718 7.718 0 0 0 640.123 196.51 A 8.062 8.062 0 0 0 639.133 197.883 Q 638.37 199.213 638.033 200.919 A 15.151 15.151 0 0 0 637.767 203.849 Q 637.767 206.89 638.857 209.158 A 9.591 9.591 0 0 0 639.07 209.574 A 7.9 7.9 0 0 0 641.951 212.638 A 8.125 8.125 0 0 0 643.816 213.468 A 9.37 9.37 0 0 0 646.539 213.851 Q 650.723 213.851 653.096 211.206 Q 654.671 209.449 655.201 206.781 Z M 702.363 206.781 A 15.073 15.073 0 0 0 702.631 203.849 A 17.126 17.126 0 0 0 702.625 203.386 Q 702.509 199.124 700.249 196.572 A 7.639 7.639 0 0 0 696.703 194.285 A 9.805 9.805 0 0 0 693.824 193.882 A 11.333 11.333 0 0 0 691.788 194.057 A 7.718 7.718 0 0 0 687.285 196.51 A 8.062 8.062 0 0 0 686.295 197.883 Q 685.532 199.213 685.195 200.919 A 15.151 15.151 0 0 0 684.93 203.849 Q 684.93 206.89 686.019 209.158 A 9.591 9.591 0 0 0 686.232 209.574 A 7.9 7.9 0 0 0 689.113 212.638 A 8.125 8.125 0 0 0 690.978 213.468 A 9.37 9.37 0 0 0 693.701 213.851 Q 697.885 213.851 700.258 211.206 Q 701.834 209.449 702.363 206.781 Z M 640.791 203.849 A 14.777 14.777 0 0 0 640.932 205.96 Q 641.087 207.032 641.413 207.9 A 6.122 6.122 0 0 0 642.267 209.474 A 4.783 4.783 0 0 0 645.382 211.308 A 7.247 7.247 0 0 0 646.609 211.408 A 6.778 6.778 0 0 0 648.397 211.185 A 4.717 4.717 0 0 0 650.96 209.483 A 6.264 6.264 0 0 0 651.935 207.583 Q 652.445 206.022 652.445 203.849 Q 652.445 200.175 650.96 198.268 Q 649.475 196.361 646.574 196.361 Q 643.709 196.361 642.25 198.242 Q 640.791 200.123 640.791 203.849 Z M 687.953 203.849 A 14.777 14.777 0 0 0 688.094 205.96 Q 688.249 207.032 688.575 207.9 A 6.122 6.122 0 0 0 689.43 209.474 A 4.783 4.783 0 0 0 692.544 211.308 A 7.247 7.247 0 0 0 693.771 211.408 A 6.778 6.778 0 0 0 695.559 211.185 A 4.717 4.717 0 0 0 698.122 209.483 A 6.264 6.264 0 0 0 699.097 207.583 Q 699.607 206.022 699.607 203.849 Q 699.607 200.175 698.122 198.268 Q 696.637 196.361 693.736 196.361 Q 690.871 196.361 689.412 198.242 Q 687.953 200.123 687.953 203.849 Z M 625.322 196.361 Q 622.334 196.361 621.016 198.075 A 4.995 4.995 0 0 0 620.292 199.452 Q 619.805 200.819 619.717 202.898 A 22.481 22.481 0 0 0 619.697 203.849 A 19.293 19.293 0 0 0 619.793 205.843 Q 620.057 208.374 621.051 209.659 A 4.233 4.233 0 0 0 623.198 211.108 Q 623.916 211.333 624.791 211.389 A 9.382 9.382 0 0 0 625.392 211.408 A 5.817 5.817 0 0 0 627.045 211.187 A 4.196 4.196 0 0 0 629.4 209.448 Q 630.342 208.048 630.611 205.773 A 16.72 16.72 0 0 0 630.719 203.814 A 17.24 17.24 0 0 0 630.614 201.85 Q 630.367 199.701 629.534 198.404 A 4.841 4.841 0 0 0 629.4 198.207 A 4.255 4.255 0 0 0 626.691 196.492 A 6.749 6.749 0 0 0 625.322 196.361 Z" id="bottom_labelLayer" stroke="#777777" fill="#777777" style="stroke:#777777;fill:#777777" vector-effect="non-scaling-stroke"/></g></svg>