<?xml version="1.0" standalone="no"?>
<!DOCTYPE svg PUBLIC "-//W3C//DTD SVG 20010904//EN"
 "http://www.w3.org/TR/2001/REC-SVG-20010904/DTD/svg10.dtd">
<svg version="1.0" xmlns="http://www.w3.org/2000/svg"
 width="500.000000pt" height="500.000000pt" viewBox="0 0 500.000000 500.000000"
 preserveAspectRatio="xMidYMid meet">
<metadata>
Created by potrace 1.14, written by Peter Selinger 2001-2017
</metadata>
<g transform="translate(0.000000,500.000000) scale(0.100000,-0.100000)"
fill="#000000" stroke="none">
<path d="M2685 4696 c-22 -15 -105 -19 -105 -5 0 18 -17 8 -28 -16 -13 -27
-38 -35 -28 -9 4 12 2 15 -9 10 -9 -3 -15 0 -15 9 0 23 -37 -3 -50 -35 l-10
-25 4 28 c4 34 -7 35 -28 2 -9 -14 -20 -24 -24 -23 -4 1 -17 -3 -29 -10 -18
-10 -23 -9 -30 2 -7 12 -12 11 -32 -5 -13 -10 -18 -19 -12 -19 6 0 11 -10 11
-22 -1 -20 -2 -21 -13 -8 -7 9 -21 14 -32 12 -18 -2 -18 -1 -4 10 9 7 14 18
12 25 -6 17 -33 4 -34 -16 0 -10 -2 -11 -6 -3 -2 6 -11 12 -19 12 -8 0 -14 8
-14 17 0 14 -4 13 -24 -7 -14 -13 -32 -20 -40 -17 -9 4 -21 1 -28 -6 -17 -16
-48 -18 -48 -3 -1 6 -9 1 -19 -11 -10 -12 -17 -34 -16 -50 1 -15 3 -38 3 -50
2 -16 7 -21 20 -17 13 5 14 4 3 -4 -7 -5 -21 -8 -30 -7 -9 2 -23 4 -31 5 -10
1 -11 3 -3 7 8 3 11 14 7 29 -3 13 -2 24 4 24 14 0 21 59 7 70 -7 6 -15 2 -23
-11 -7 -10 -8 -19 -3 -19 5 0 12 6 14 13 3 6 4 1 2 -13 -1 -14 -7 -38 -14 -53
-16 -40 -14 -57 6 -57 14 0 14 -3 -4 -19 -13 -13 -19 -28 -16 -43 2 -13 -1
-34 -7 -48 -9 -22 -10 -21 -5 13 4 22 2 37 -4 37 -7 0 -9 14 -5 36 4 23 2 34
-5 30 -5 -4 -12 -2 -15 3 -3 5 0 11 8 14 14 6 29 46 18 48 -4 0 -17 2 -29 5
-13 2 -23 -1 -23 -6 0 -6 8 -10 17 -10 13 0 14 -3 5 -12 -9 -9 -15 -8 -27 8
-11 14 -14 15 -15 4 0 -13 -1 -13 -10 0 -5 8 -10 12 -10 7 0 -9 21 -47 39 -69
20 -26 -4 -23 -30 3 -11 11 -22 19 -24 17 -5 -5 16 -65 34 -96 7 -13 10 -26 7
-29 -3 -3 -10 7 -16 22 -6 15 -13 25 -16 22 -4 -3 -13 1 -22 9 -12 13 -17 13
-24 2 -7 -10 -11 -9 -23 6 -19 25 -19 9 0 -27 8 -15 10 -25 5 -22 -4 3 -11 -1
-13 -7 -3 -7 -6 1 -6 17 -1 23 -4 27 -11 15 -5 -8 -10 -10 -11 -5 -1 20 -18
-31 -18 -58 -1 -16 -5 -26 -10 -23 -5 3 -7 15 -4 26 3 11 0 20 -6 20 -6 0 -11
7 -11 15 0 18 16 20 23 3 3 -7 6 -1 6 15 1 15 -3 27 -9 27 -5 0 -10 -5 -10
-11 0 -5 -4 -8 -9 -4 -6 3 -8 -12 -7 -35 3 -41 -9 -54 -21 -22 -9 22 -29 43
-36 36 -3 -3 -3 -13 0 -22 4 -10 -3 -7 -16 8 l-22 25 6 -30 6 -30 -22 25 -21
25 6 -27 c6 -25 5 -26 -22 -19 -27 8 -28 7 -24 -20 3 -17 0 -29 -7 -29 -6 0
-11 7 -11 15 0 8 -4 15 -10 15 -5 0 -7 -8 -3 -17 6 -16 3 -15 -17 2 l-24 20
17 -28 c14 -21 15 -32 6 -48 -6 -12 -8 -30 -6 -41 5 -17 1 -19 -36 -18 -23 1
-52 -2 -64 -5 -24 -8 -31 -29 -13 -40 6 -3 10 -12 10 -18 0 -7 -7 -4 -14 6
-10 13 -16 15 -21 7 -4 -7 -18 -10 -31 -7 -13 2 -24 0 -24 -4 0 -5 10 -9 23
-9 17 0 19 -2 8 -9 -9 -6 -22 -6 -33 0 -18 10 -24 -2 -19 -38 1 -7 -5 -13 -13
-13 -9 0 -13 -6 -10 -15 9 -23 -5 -37 -27 -25 -20 11 -28 -3 -9 -15 8 -5 8
-11 1 -19 -6 -7 -9 -22 -6 -34 2 -12 -1 -22 -7 -22 -6 0 -8 -3 -5 -7 4 -3 2
-12 -4 -20 -9 -10 -6 -13 17 -14 16 -1 33 -1 38 0 5 1 1 -10 -8 -24 -18 -27
-17 -27 6 -21 12 3 6 -2 -15 -11 -28 -12 -36 -20 -31 -32 4 -9 6 -24 6 -33 -1
-17 1 -17 30 -2 20 10 28 11 22 3 -5 -9 -2 -10 10 -6 11 4 15 3 11 -4 -4 -6
-14 -8 -22 -5 -10 4 -13 0 -11 -12 2 -12 11 -16 33 -14 l30 2 -30 -14 c-16 -7
-35 -23 -42 -34 -11 -18 -10 -20 6 -17 24 4 61 27 61 37 0 5 5 8 10 8 6 0 10
-7 10 -16 0 -8 5 -12 10 -9 6 3 10 2 10 -4 0 -5 -6 -12 -12 -14 -7 -3 1 -6 17
-7 l30 -1 -34 -29 c-19 -16 -33 -32 -30 -34 7 -7 61 44 63 60 1 9 9 20 17 25
8 5 11 9 6 9 -4 0 0 14 8 30 9 17 13 36 9 42 -4 6 -3 8 3 5 6 -4 16 0 23 8 7
8 16 15 21 15 4 0 -3 -11 -16 -25 -14 -13 -25 -30 -25 -37 1 -7 12 2 27 19 14
18 47 56 74 85 39 43 46 55 37 67 -10 13 -10 14 1 4 11 -9 23 -6 58 18 59 41
139 62 159 42 8 -8 14 -10 14 -5 0 14 51 2 57 -14 2 -7 18 -16 34 -19 16 -4
33 -14 39 -23 5 -9 10 -12 10 -6 0 6 18 2 44 -10 25 -11 42 -25 39 -30 -4 -5
1 -7 10 -3 9 3 19 2 22 -3 3 -5 30 -16 61 -25 30 -9 52 -20 49 -25 -4 -6 -1
-10 4 -10 6 0 11 5 11 10 0 14 51 -13 92 -48 38 -33 79 -52 59 -28 -10 12 -8
13 10 9 12 -3 38 -14 58 -24 l36 -18 -35 5 c-33 5 -34 5 -15 -10 11 -9 36 -21
56 -26 45 -12 89 -49 89 -75 1 -19 1 -19 14 -2 14 17 32 24 21 8 -3 -5 4 -12
14 -16 12 -4 18 -12 14 -21 -4 -10 2 -14 20 -14 34 0 58 -10 51 -21 -3 -5 3
-6 12 -2 20 7 45 -22 37 -43 -3 -8 0 -14 5 -14 6 0 12 6 14 14 2 10 9 11 26 5
19 -7 21 -11 10 -22 -7 -8 -19 -12 -28 -10 -10 3 -16 -3 -17 -17 -1 -14 5 -24
18 -27 26 -7 24 -20 -6 -27 -15 -4 -27 -16 -31 -31 -3 -14 -10 -22 -16 -19 -5
3 -12 -3 -15 -15 -3 -12 -9 -21 -13 -21 -12 0 -40 -29 -40 -41 0 -6 6 -7 13
-2 6 4 4 -5 -6 -20 -9 -15 -15 -27 -12 -27 11 0 -19 -26 -37 -32 -9 -4 -19 -2
-22 5 -5 9 -7 9 -12 0 -3 -7 -12 -9 -20 -6 -8 3 -14 0 -14 -7 0 -6 -5 -8 -10
-5 -6 4 -8 10 -5 15 3 5 1 11 -5 15 -6 4 -8 -10 -4 -39 7 -45 2 -52 -28 -47
-7 1 -10 -10 -10 -29 0 -3 3 -15 7 -28 6 -21 4 -23 -20 -20 -22 2 -34 15 -55
55 -27 50 -44 52 -35 4 2 -11 0 -23 -6 -26 -5 -4 -9 -1 -9 5 0 8 -6 8 -21 0
-16 -9 -18 -14 -9 -25 6 -8 18 -11 26 -8 20 7 17 -4 -6 -27 -12 -12 -18 -25
-15 -30 4 -6 -1 -13 -9 -16 -9 -3 -13 -10 -11 -15 3 -4 -3 -14 -14 -21 -15 -9
-17 -15 -9 -25 6 -7 17 -13 24 -13 15 0 15 -21 -1 -32 -13 -10 -89 -10 -98 -1
-4 3 0 15 10 25 15 17 15 20 -4 41 -27 28 -30 52 -15 97 7 20 10 51 8 70 -2
19 -4 42 -5 50 -1 12 -5 11 -16 -4 -8 -10 -12 -23 -9 -27 3 -5 1 -9 -4 -9 -5
0 -8 -22 -8 -49 1 -45 0 -48 -15 -35 -15 13 -16 12 -13 -18 3 -21 1 -28 -5
-19 -5 7 -11 9 -14 4 -3 -5 -19 -10 -36 -11 -23 -2 -37 5 -56 27 -24 26 -31
28 -78 25 -31 -2 -63 2 -79 11 -16 7 -26 9 -23 4 4 -5 2 -9 -4 -9 -7 0 -7 -8
-1 -25 7 -19 6 -25 -5 -25 -8 0 -18 7 -23 15 -12 23 -62 3 -62 -24 0 -28 -14
-33 -28 -10 -10 16 -9 19 5 19 9 0 13 3 10 7 -4 3 -1 13 6 22 11 14 10 15 -7
1 -11 -8 -21 -14 -23 -12 -12 9 -35 -18 -31 -36 3 -12 3 -21 -1 -20 -3 1 -13
-1 -21 -5 -8 -3 -58 -10 -110 -17 -96 -11 -158 -26 -173 -40 -5 -4 17 -1 50 7
37 9 132 17 263 20 219 6 270 -1 80 -10 -67 -3 -116 -10 -118 -16 -2 -6 -9
-11 -17 -11 -7 0 -19 -8 -26 -17 -12 -15 -12 -16 4 -10 23 9 22 -5 -3 -21 -11
-7 -20 -19 -20 -28 0 -15 2 -15 25 0 13 9 37 16 52 16 25 0 23 -3 -22 -28 -49
-27 -62 -51 -21 -42 39 9 157 5 164 -5 8 -12 77 -42 107 -48 11 -2 19 -8 18
-14 -1 -6 4 -17 12 -23 11 -9 15 -9 15 -1 0 6 19 11 47 11 l46 0 -19 22 c-10
12 -13 18 -6 14 11 -6 17 5 13 27 0 4 5 7 12 7 16 0 47 -31 47 -47 0 -6 6 -16
14 -22 11 -9 15 -8 20 5 10 26 7 44 -10 62 -11 10 -13 17 -5 20 6 2 11 18 12
35 1 30 1 30 8 7 9 -30 7 -136 -3 -170 -4 -16 2 -10 16 15 17 30 23 56 23 105
0 64 0 65 30 71 46 10 144 9 120 -1 -19 -7 -19 -8 6 -18 15 -6 29 -17 32 -25
7 -19 -8 -82 -29 -120 -10 -17 -13 -38 -10 -53 4 -14 3 -23 -2 -20 -5 3 -9
-27 -9 -67 0 -40 -3 -108 -6 -152 -3 -44 -2 -84 2 -90 5 -5 2 -41 -6 -79 -9
-45 -11 -72 -4 -79 6 -6 6 -18 -2 -34 -8 -18 -8 -29 1 -44 10 -15 9 -19 -2
-19 -8 0 -23 -11 -34 -25 -11 -13 -22 -22 -25 -19 -3 3 -8 -4 -12 -15 -3 -12
-13 -21 -21 -21 -18 0 -18 -8 1 -26 13 -14 15 -13 15 5 0 11 5 23 11 26 6 5 9
-7 7 -32 -2 -28 1 -38 12 -39 8 0 35 -4 60 -7 25 -4 61 -9 80 -11 19 -2 36 -5
38 -5 5 -2 -26 -31 -33 -31 -3 0 -19 -10 -35 -22 -22 -16 -27 -25 -19 -34 7
-9 2 -14 -21 -19 -16 -4 -30 -11 -30 -17 0 -17 -30 13 -30 31 -1 13 -3 12 -13
-4 -8 -14 -23 -20 -49 -20 -20 0 -39 3 -43 7 -4 3 -22 0 -41 -8 -19 -8 -51
-15 -72 -16 -57 -1 -162 8 -169 16 -9 9 -25 7 -19 -3 3 -4 -8 -20 -24 -35 -34
-30 -35 -35 -15 -62 19 -25 19 -44 1 -44 -8 0 -18 -4 -21 -10 -3 -6 1 -7 9 -4
10 4 16 1 16 -7 0 -10 3 -10 12 -1 7 7 14 17 14 22 1 6 2 15 3 21 0 5 5 8 10
5 5 -3 8 0 8 7 -1 6 2 28 7 47 l7 36 72 -4 c40 -3 108 1 152 7 58 9 98 9 145
2 89 -15 150 -27 156 -33 2 -3 -14 -38 -37 -77 -30 -52 -45 -69 -52 -62 -17
17 -27 13 -21 -6 5 -17 5 -17 -6 0 -18 28 -32 20 -25 -13 5 -24 4 -29 -8 -24
-9 3 -19 -2 -24 -13 -9 -18 -10 -70 -2 -77 2 -3 45 -12 94 -22 114 -21 143
-32 156 -56 17 -32 19 -120 2 -146 -8 -13 -12 -30 -9 -38 3 -8 0 -14 -6 -14
-9 0 -9 -3 0 -12 10 -10 8 -16 -10 -31 -16 -13 -19 -20 -10 -24 6 -2 10 -9 7
-14 -9 -14 -77 63 -77 88 0 13 -6 24 -12 25 -6 0 -18 2 -26 3 -23 2 -60 -35
-53 -53 4 -10 2 -13 -5 -8 -16 10 -28 -22 -14 -36 17 -17 3 -37 -24 -32 -17 3
-24 0 -24 -12 0 -13 -3 -14 -15 -4 -9 8 -15 9 -15 2 0 -6 5 -14 10 -17 13 -8
13 -25 -1 -25 -5 0 -8 4 -5 9 3 5 -3 11 -14 14 -20 5 -47 -26 -42 -48 1 -5 -4
-2 -11 7 -13 16 -15 16 -32 0 -10 -9 -14 -11 -10 -4 6 11 3 12 -13 3 -31 -17
-40 -35 -13 -28 14 3 21 1 18 -6 -5 -18 -49 -21 -61 -5 -12 14 -66 41 -66 32
0 -11 28 -33 34 -27 3 4 6 1 6 -5 0 -7 7 -12 15 -12 8 0 15 -5 15 -11 0 -6 7
-8 16 -5 8 3 12 2 9 -4 -3 -5 11 -12 31 -16 25 -5 32 -9 22 -15 -9 -6 -5 -9
13 -9 15 0 32 -7 39 -15 6 -8 15 -14 18 -13 23 2 42 -3 37 -12 -3 -5 8 -7 29
-5 20 3 38 0 42 -7 4 -6 3 -8 -3 -5 -6 4 -19 0 -29 -9 -18 -14 -17 -14 14 -12
21 2 36 -3 42 -12 8 -12 13 -13 30 -2 23 14 42 16 20 2 -12 -8 -11 -10 8 -10
12 0 22 -5 22 -11 0 -6 -7 -9 -15 -5 -8 3 -15 1 -15 -4 0 -6 5 -10 10 -10 6 0
10 -5 10 -11 0 -5 -4 -8 -9 -4 -6 3 -14 -3 -20 -13 -7 -14 -6 -19 4 -19 8 0
12 4 9 9 -3 4 5 8 18 8 13 0 34 12 47 25 15 17 19 25 9 25 -8 0 -19 -5 -24
-10 -7 -7 -11 -6 -11 5 0 13 9 15 41 13 32 -2 41 -7 40 -20 -1 -10 5 -17 15
-16 36 3 51 -3 51 -19 0 -13 3 -14 12 -5 19 19 33 14 15 -6 -10 -10 -17 -22
-17 -25 0 -13 39 -7 54 9 9 9 22 17 29 18 7 1 23 9 37 19 30 21 47 22 30 2 -7
-8 -19 -15 -27 -15 -8 0 -11 -5 -8 -10 4 -6 11 -7 17 -4 7 4 8 2 4 -4 -4 -7
-14 -12 -22 -12 -8 0 -14 -4 -14 -10 0 -14 1 -13 55 17 27 15 45 21 41 15 -4
-7 -2 -12 3 -12 6 0 11 7 11 15 0 8 4 15 8 15 9 0 8 -47 -1 -57 -4 -3 -7 -2
-7 4 0 8 -8 8 -25 0 -14 -7 -25 -17 -25 -24 0 -6 -6 -14 -12 -17 -7 -3 -2 -3
12 0 14 4 27 10 30 14 7 9 43 24 53 21 5 -1 6 2 4 6 -3 5 7 9 21 9 15 1 21 -1
15 -3 -7 -3 -13 -14 -13 -24 0 -11 5 -17 10 -14 13 8 13 3 0 -30 -6 -17 -15
-24 -22 -19 -10 5 -10 4 -1 -6 9 -10 9 -18 0 -34 -15 -27 -17 -56 -4 -56 6 0
2 -7 -9 -15 -27 -20 -10 -18 35 4 57 30 139 98 155 130 9 16 35 44 58 62 42
32 43 32 18 4 -14 -16 -31 -35 -37 -43 -7 -7 -13 -17 -13 -21 0 -4 -15 -22
-34 -41 l-35 -35 41 -37 c22 -21 45 -38 51 -38 7 0 7 4 -1 12 -7 7 -12 18 -12
26 0 12 5 11 26 -3 14 -9 31 -14 39 -12 26 11 4 -29 -23 -40 -86 -36 -227
-105 -232 -114 -4 -5 -13 -7 -21 -5 -8 3 -60 10 -115 15 -80 8 -116 7 -169 -4
-82 -17 -92 -24 -28 -19 48 4 48 4 11 -6 -41 -10 -178 -77 -178 -86 0 -3 5 -2
12 2 6 4 8 3 4 -4 -3 -6 -16 -9 -28 -7 -25 5 -51 -12 -41 -28 4 -6 0 -8 -11
-4 -11 5 -15 3 -10 -5 5 -8 2 -9 -10 -5 -11 5 -15 3 -10 -5 5 -8 2 -9 -10 -5
-10 4 -15 3 -11 -3 4 -6 -4 -14 -17 -19 -18 -8 -19 -10 -5 -10 10 -1 29 6 42
15 14 9 32 14 40 10 8 -3 14 0 12 7 -1 7 7 11 17 10 11 -1 26 6 33 15 7 9 13
13 13 9 0 -11 74 41 116 81 12 11 14 10 15 -5 1 -10 1 -22 0 -28 -1 -10 25 20
31 35 2 4 14 11 26 15 24 7 24 7 5 -13 -10 -11 -26 -32 -36 -46 -10 -15 -31
-32 -47 -39 -27 -11 -110 -109 -110 -129 0 -21 200 -3 252 23 19 9 33 -4 23
-21 -4 -7 199 -10 602 -9 334 0 599 4 589 8 -19 7 -33 61 -15 61 5 0 9 -4 9
-10 0 -5 3 -9 8 -9 4 1 27 -2 50 -6 31 -5 46 -14 52 -29 5 -12 9 -15 9 -8 1 6
10 12 21 12 11 0 20 -6 20 -12 0 -9 4 -8 10 2 6 10 10 11 10 3 0 -21 396 -18
416 2 9 8 27 15 41 15 15 0 23 3 20 7 -4 3 -1 11 7 17 7 6 16 28 19 48 6 41
-5 48 -44 28 -29 -16 -23 3 14 37 51 48 139 85 185 77 43 -7 64 -15 58 -21
-12 -12 17 -33 45 -33 15 0 40 -5 56 -11 l28 -11 -24 -9 c-14 -6 -30 -8 -38
-5 -7 3 -15 1 -18 -4 -3 -5 16 -12 42 -16 27 -3 60 -13 75 -20 37 -19 108 -19
108 0 0 8 -6 17 -12 20 -7 3 0 4 15 2 25 -3 26 -2 12 14 -8 9 -15 22 -15 29 0
7 -4 9 -10 6 -5 -3 -10 -1 -10 6 0 6 8 9 19 6 10 -2 25 -1 32 4 8 4 16 4 20
-2 10 -17 39 2 39 26 0 17 -7 25 -22 28 l-23 4 23 2 c15 1 22 7 22 21 0 18 -7
20 -62 22 -52 1 -121 4 -205 7 -7 1 -13 5 -13 10 0 9 114 6 225 -5 33 -3 56
-2 52 2 -9 10 -147 26 -201 25 -27 -1 -57 9 -102 34 -36 19 -71 35 -80 35 -8
0 -33 17 -57 39 -27 24 -79 53 -147 81 -144 59 -413 140 -465 140 -38 0 -44 3
-55 30 -17 42 -78 74 -63 33 6 -15 5 -16 -9 -3 -9 8 -14 17 -12 19 11 11 -43
42 -66 38 -31 -6 -79 17 -154 73 -32 25 -77 56 -101 70 -34 20 -62 53 -129
153 l-86 129 10 140 c6 77 12 143 15 147 2 4 5 46 6 92 1 75 21 185 62 337
l11 42 18 -34 c21 -40 63 -76 90 -76 36 0 78 30 99 73 15 28 26 81 36 161 10
87 22 139 45 195 68 165 68 165 61 301 -7 152 -17 176 -75 187 -24 5 -41 13
-38 18 3 6 8 9 13 7 8 -2 11 41 8 99 -2 20 2 40 8 44 6 3 11 17 11 30 0 13 5
27 11 30 7 5 8 28 5 63 -4 41 -2 58 8 66 11 8 13 23 7 61 -8 47 -7 192 2 312
3 39 1 53 -10 57 -9 4 -13 17 -12 33 2 16 -3 39 -10 52 -10 19 -10 25 -1 31 9
6 6 11 -10 20 -18 10 -20 14 -9 21 12 8 12 10 0 18 -11 7 -11 9 0 13 10 3 4
14 -18 35 -33 31 -42 53 -22 53 5 0 7 5 3 12 -5 8 0 9 14 6 33 -9 26 8 -8 22
-30 12 -41 30 -19 30 8 0 8 4 -1 15 -6 8 -9 18 -6 23 3 5 -3 17 -14 27 -11 10
-17 21 -15 25 3 4 -6 15 -19 24 -14 8 -28 26 -32 38 -3 13 -19 39 -34 58 -18
22 -27 45 -25 61 2 19 -7 37 -32 63 -20 20 -29 36 -22 36 8 0 2 10 -13 21 -16
11 -28 27 -28 34 0 7 -16 19 -35 25 -19 6 -41 17 -48 23 -28 27 -87 67 -87 60
0 -4 -4 -1 -10 7 -6 9 -5 17 3 22 6 4 0 9 -16 13 -15 4 -27 10 -27 14 0 13
-55 39 -90 43 -19 1 -43 10 -53 19 -10 9 -32 20 -49 23 -17 3 -28 9 -25 13 8
8 -68 43 -94 43 -10 0 -21 5 -25 11 -4 8 -9 7 -15 -2 -6 -11 -11 -11 -21 -1
-9 9 -9 12 2 12 11 0 10 4 -3 18 -17 16 -19 16 -33 -2 -16 -23 -19 -14 -4 15
12 22 2 25 -25 5z m-256 -120 c-9 -8 -10 -7 -5 7 3 10 7 24 7 30 1 7 3 4 6 -7
3 -10 -1 -23 -8 -30z m-249 30 c0 -3 -4 -8 -10 -11 -5 -3 -10 -1 -10 4 0 6 5
11 10 11 6 0 10 -2 10 -4z m170 -20 c0 -6 -9 -12 -20 -12 -11 0 -20 4 -20 8 0
4 5 8 11 8 5 0 7 4 4 10 -3 6 1 7 9 4 9 -3 16 -11 16 -18z m26 -4 c-17 -16
-18 -16 -5 5 7 12 15 20 18 17 3 -2 -3 -12 -13 -22z m108 4 c-3 -9 -10 -16
-15 -16 -5 0 -4 9 3 20 14 22 21 20 12 -4z m56 14 c0 -5 -5 -10 -11 -10 -5 0
-7 5 -4 10 3 6 8 10 11 10 2 0 4 -4 4 -10z m-430 -30 c-6 -12 -14 -19 -17 -17
-2 3 1 15 7 27 6 12 14 19 17 17 2 -3 -1 -15 -7 -27z m-30 -55 c0 -55 -13 -73
-25 -35 -4 11 -10 18 -15 15 -10 -6 -20 32 -13 51 3 8 10 14 15 14 6 0 8 -6 5
-13 -3 -8 -1 -20 4 -28 6 -10 9 -7 9 12 0 23 7 39 17 39 2 0 3 -25 3 -55z m73
40 c-3 -9 -8 -14 -10 -11 -3 3 -2 9 2 15 9 16 15 13 8 -4z m244 3 c-2 -7 -10
-12 -16 -10 -6 1 -11 -3 -11 -10 0 -6 -3 -8 -6 -5 -8 8 14 37 28 37 5 0 8 -6
5 -12z m227 -5 c-7 -2 -10 -13 -7 -23 6 -21 -11 -28 -22 -9 -8 12 25 53 34 43
3 -4 1 -9 -5 -11z m-373 -20 c-8 -15 -10 -15 -11 -2 0 17 10 32 18 25 2 -3 -1
-13 -7 -23z m91 -5 c-7 -7 -12 -8 -12 -2 0 14 12 26 19 19 2 -3 -1 -11 -7 -17z
m-127 -25 c-3 -15 -12 -32 -19 -37 -15 -13 -28 -56 -17 -56 5 0 13 10 19 23
11 22 11 22 11 1 1 -12 -6 -35 -14 -50 -14 -27 -15 -27 -15 -6 0 31 -13 27
-29 -9 -10 -23 -16 -28 -22 -18 -12 18 -11 32 0 24 13 -7 23 28 15 50 -5 13
-4 16 4 11 8 -5 12 2 12 22 0 20 7 32 25 42 14 7 25 17 25 22 0 4 3 8 6 8 3 0
3 -12 -1 -27z m268 12 c-3 -9 -8 -14 -10 -11 -3 3 -2 9 2 15 9 16 15 13 8 -4z
m-352 -17 c2 -38 -7 -97 -15 -106 -8 -7 -12 66 -7 116 2 21 21 13 22 -10z
m149 6 c0 -8 -5 -12 -10 -9 -6 4 -8 11 -5 16 9 14 15 11 15 -7z m150 -34 c-11
-22 -24 -40 -29 -40 -5 0 -11 -8 -13 -17 -3 -13 -6 -10 -9 9 -4 18 -2 25 6 22
7 -3 15 8 19 28 5 23 9 29 15 20 7 -11 9 -11 14 2 4 9 9 16 12 16 3 0 -4 -18
-15 -40z m-150 10 c8 -5 10 -10 4 -10 -7 0 -15 -7 -18 -16 -3 -8 -2 -12 4 -9
6 4 10 -12 10 -38 0 -30 -5 -47 -14 -50 -12 -5 -14 3 -11 36 2 23 2 36 -1 30
-8 -18 -24 -16 -24 2 0 18 21 65 29 65 3 0 13 -5 21 -10z m204 -15 c-4 -8 -8
-15 -10 -15 -2 0 -4 7 -4 15 0 8 4 15 10 15 5 0 7 -7 4 -15z m42 -16 c-3 -30
-26 -66 -26 -42 0 7 5 15 10 18 6 3 10 11 10 17 0 6 -7 5 -17 -3 -15 -12 -16
-12 -8 1 11 20 27 40 31 40 2 0 2 -14 0 -31z m-536 -71 c0 -18 -2 -20 -9 -8
-6 8 -7 18 -5 22 9 14 14 9 14 -14z m477 0 c-3 -8 -6 -5 -6 6 -1 11 2 17 5 13
3 -3 4 -12 1 -19z m-110 -10 c-3 -8 -6 -5 -6 6 -1 11 2 17 5 13 3 -3 4 -12 1
-19z m173 12 c0 -5 -4 -10 -9 -10 -6 0 -13 5 -16 10 -3 6 1 10 9 10 9 0 16 -4
16 -10z m-720 -10 c0 -5 -2 -10 -4 -10 -3 0 -8 5 -11 10 -3 6 -1 10 4 10 6 0
11 -4 11 -10z m851 -9 c-6 -10 -8 -20 -6 -23 6 -6 -43 -108 -51 -108 -3 0 -4
7 0 15 3 8 1 15 -4 15 -6 0 -10 5 -10 10 0 6 8 10 18 8 10 -2 17 3 17 14 0 9
4 20 7 24 4 4 0 13 -10 21 -9 8 -11 12 -5 8 7 -3 20 3 30 15 22 25 27 26 14 1z
m-118 -24 c-3 -13 -11 -24 -19 -24 -18 0 -18 3 3 27 22 25 21 25 16 -3z m191
15 c3 -5 -1 -9 -9 -9 -8 0 -12 4 -9 9 3 4 7 8 9 8 2 0 6 -4 9 -8z m-537 -24
c-3 -8 -6 -5 -6 6 -1 11 2 17 5 13 3 -3 4 -12 1 -19z m-277 -10 c0 -16 -3 -19
-11 -11 -6 6 -8 16 -5 22 11 17 16 13 16 -11z m317 -42 c-26 -64 -39 -66 -25
-4 7 35 36 74 46 63 2 -1 -7 -28 -21 -59z m-92 17 c-5 -10 -7 -22 -6 -26 1 -5
-2 -6 -7 -3 -5 3 -7 19 -4 36 3 21 8 28 15 21 5 -5 6 -18 2 -28z m35 22 c0 -8
-4 -15 -10 -15 -5 0 -7 7 -4 15 4 8 8 15 10 15 2 0 4 -7 4 -15z m585 -25 c-21
-22 -42 -40 -46 -40 -9 0 1 39 12 46 5 3 6 -3 3 -13 -3 -11 6 -5 23 14 15 17
32 32 38 32 5 1 -9 -17 -30 -39z m-818 -2 c-3 -8 -6 -5 -6 6 -1 11 2 17 5 13
3 -3 4 -12 1 -19z m59 -14 c-4 -9 -9 -15 -11 -12 -3 3 -3 13 1 22 4 9 9 15 11
12 3 -3 3 -13 -1 -22z m-28 -35 c-3 -20 -5 -19 -9 9 -3 20 -2 29 4 23 5 -5 7
-19 5 -32z m-425 6 c-3 -9 -8 -14 -10 -11 -3 3 -2 9 2 15 9 16 15 13 8 -4z
m602 -4 c-8 -14 -25 -14 -25 0 0 5 5 7 10 4 6 -3 10 -1 10 6 0 7 3 10 6 6 3
-3 3 -10 -1 -16z m90 -30 c-8 -17 -18 -31 -21 -31 -3 0 -3 4 0 9 3 4 10 21 16
36 6 15 13 25 16 22 3 -3 -2 -19 -11 -36z m499 27 c-3 -4 -11 -8 -17 -8 -12 0
-43 -39 -40 -51 1 -3 -7 -11 -18 -17 -16 -10 -20 -10 -25 3 -3 8 1 22 10 31 9
8 20 23 26 33 5 11 21 18 39 18 17 0 28 -4 25 -9z m-163 -131 c-10 -9 -11 -8
-5 6 3 10 9 15 12 12 3 -3 0 -11 -7 -18z m62 8 c-3 -9 -8 -14 -10 -11 -3 3 -2
9 2 15 9 16 15 13 8 -4z m-43 -35 c-14 -10 -27 -17 -29 -14 -6 5 31 33 44 33
6 1 -1 -8 -15 -19z m-94 -248 c-11 -10 -87 -11 -80 -1 3 6 12 8 20 5 8 -3 14
-2 14 3 0 4 11 6 25 3 14 -2 24 -7 21 -10z m-1199 -28 c-3 -3 -12 -4 -19 -1
-8 3 -5 6 6 6 11 1 17 -2 13 -5z m1200 -20 c-3 -3 -12 -4 -19 -1 -8 3 -5 6 6
6 11 1 17 -2 13 -5z m-140 -30 c-3 -3 -12 -4 -19 -1 -8 3 -5 6 6 6 11 1 17 -2
13 -5z m71 -1 c-10 -2 -26 -2 -35 0 -10 3 -2 5 17 5 19 0 27 -2 18 -5z m-63
-23 c-3 -5 -12 -10 -18 -10 -7 0 -6 4 3 10 19 12 23 12 15 0z m-1078 -22 c-3
-8 -6 -5 -6 6 -1 11 2 17 5 13 3 -3 4 -12 1 -19z m463 -757 c0 -11 -39 -21
-45 -11 -2 4 -2 10 2 14 10 9 43 7 43 -3z m1581 -125 c5 3 9 0 9 -6 0 -12 -28
-26 -36 -18 -2 3 -1 13 3 24 4 11 8 13 11 6 2 -7 8 -10 13 -6z m-1261 -6 c0
-5 -5 -10 -11 -10 -5 0 -7 5 -4 10 3 6 8 10 11 10 2 0 4 -4 4 -10z m1085 -259
c-3 -6 -16 -16 -28 -22 -20 -11 -20 -9 3 13 25 24 38 29 25 9z m-512 -88 c-7
-2 -21 -2 -30 0 -10 3 -4 5 12 5 17 0 24 -2 18 -5z m954 -95 c-3 -8 -6 -5 -6
6 -1 11 2 17 5 13 3 -3 4 -12 1 -19z m0 -85 c-2 -16 -4 -5 -4 22 0 28 2 40 4
28 2 -13 2 -35 0 -50z m-70 25 c-3 -7 -5 -2 -5 12 0 14 2 19 5 13 2 -7 2 -19
0 -25z m-1467 -1448 c0 -5 -8 -10 -17 -10 -15 0 -16 2 -3 10 19 12 20 12 20 0z
m90 -4 c0 -2 -7 -7 -16 -10 -8 -3 -12 -2 -9 4 6 10 25 14 25 6z m-135 -16 c-3
-5 -10 -10 -16 -10 -5 0 -9 5 -9 10 0 6 7 10 16 10 8 0 12 -4 9 -10z m121 -19
c-8 -12 -46 -21 -46 -11 0 5 10 11 23 13 12 2 23 5 25 6 2 0 1 -3 -2 -8z m84
4 c0 -2 -10 -9 -22 -15 -22 -11 -22 -10 -4 4 21 17 26 19 26 11z m1037 -92
c-3 -10 -5 -4 -5 12 0 17 2 24 5 18 2 -7 2 -21 0 -30z m513 17 c0 -5 -2 -10
-4 -10 -3 0 -8 5 -11 10 -3 6 -1 10 4 10 6 0 11 -4 11 -10z m-15 -31 c11 -17
-1 -21 -15 -4 -8 9 -8 15 -2 15 6 0 14 -5 17 -11z m-670 -50 c-4 -46 -15 -66
-15 -28 0 26 10 69 16 69 2 0 1 -18 -1 -41z m162 -1 c-3 -8 -6 -5 -6 6 -1 11
2 17 5 13 3 -3 4 -12 1 -19z m-24 -73 c-3 -9 -8 -14 -10 -11 -3 3 -2 9 2 15 9
16 15 13 8 -4z m-62 -168 c-10 -9 -11 -8 -5 6 3 10 9 15 12 12 3 -3 0 -11 -7
-18z m-116 -37 c-3 -5 -12 -10 -18 -10 -7 0 -6 4 3 10 19 12 23 12 15 0z m65
0 c13 -8 13 -10 -2 -10 -9 0 -20 5 -23 10 -8 13 5 13 25 0z m-57 -34 c6 -15
-1 -26 -15 -26 -4 0 -8 9 -8 20 0 23 15 27 23 6z m-81 -11 c-23 -17 -101 -51
-91 -41 9 10 92 53 104 55 5 0 0 -6 -13 -14z m11 -32 c-4 -11 -3 -14 5 -9 8 5
10 2 6 -8 -3 -9 -10 -16 -16 -16 -5 0 -6 5 -3 10 3 6 1 10 -5 10 -6 0 -13 -7
-17 -16 -3 -10 -13 -14 -25 -11 -15 4 -18 2 -13 -11 3 -9 3 -13 -1 -9 -4 4
-13 2 -21 -5 -7 -6 -16 -8 -20 -5 -3 4 -12 2 -20 -5 -19 -16 -30 -1 -15 22 10
17 9 18 -6 13 -9 -3 -25 -14 -35 -25 -19 -19 -32 -24 -23 -9 4 5 1 12 -4 14
-6 3 -5 4 2 3 7 -2 20 2 28 8 21 17 72 38 66 28 -3 -5 2 -18 10 -28 9 -10 13
-14 10 -7 -8 15 23 46 39 39 8 -3 16 2 19 10 3 9 10 13 15 9 5 -3 12 -1 16 5
10 16 15 12 8 -7z m-483 -57 c0 -11 -19 -15 -25 -6 -3 5 1 10 9 10 9 0 16 -2
16 -4z m87 -12 c-3 -3 -12 -4 -19 -1 -8 3 -5 6 6 6 11 1 17 -2 13 -5z m2093
-10 c0 -2 -11 -3 -24 -2 -14 1 -23 5 -20 9 4 7 44 0 44 -7z m-2014 -3 c-3 -5
3 -11 14 -14 22 -6 28 8 8 17 -13 6 32 0 62 -8 8 -3 17 -5 20 -6 3 0 -13 -8
-35 -17 -45 -19 -119 -20 -170 -3 -57 19 -49 28 23 24 47 -3 61 -1 47 5 -18 9
-17 10 8 10 16 1 26 -3 23 -8z m2060 -3 c5 -7 3 -8 -5 -3 -8 4 -21 -2 -33 -14
-20 -22 -39 -24 -45 -4 -3 7 4 9 15 7 10 -3 24 2 31 10 16 19 27 20 37 4z m-6
-28 c0 -5 -2 -10 -4 -10 -3 0 -8 5 -11 10 -3 6 -1 10 4 10 6 0 11 -4 11 -10z
m-1790 -30 c-8 -6 -22 -10 -30 -10 -8 0 -4 6 10 13 27 15 44 12 20 -3z m-610
6 c0 -2 -7 -7 -16 -10 -8 -3 -12 -2 -9 4 6 10 25 14 25 6z"/>
<path d="M2362 4671 c9 -15 15 -17 25 -9 11 8 12 7 7 -7 -5 -13 -4 -16 4 -11
21 13 14 38 -8 31 -11 -4 -20 -2 -20 4 0 6 -5 11 -10 11 -6 0 -5 -8 2 -19z"/>
<path d="M1780 4526 c0 -4 7 -14 15 -22 8 -9 15 -11 15 -6 0 5 -7 15 -15 22
-8 7 -15 9 -15 6z"/>
<path d="M1720 4421 c0 -6 4 -13 10 -16 6 -3 7 1 4 9 -7 18 -14 21 -14 7z"/>
<path d="M1419 4219 c13 -11 27 -17 30 -13 7 7 -28 34 -43 34 -6 -1 0 -10 13
-21z"/>
<path d="M1297 4154 c-9 -9 2 -24 17 -24 7 0 13 7 13 15 0 15 -18 20 -30 9z"/>
<path d="M1800 3920 c0 -5 5 -10 11 -10 5 0 7 5 4 10 -3 6 -8 10 -11 10 -2 0
-4 -4 -4 -10z"/>
<path d="M1940 3846 c0 -2 7 -7 16 -10 8 -3 12 -2 9 4 -6 10 -25 14 -25 6z"/>
<path d="M1180 3620 c0 -5 5 -10 11 -10 5 0 7 5 4 10 -3 6 -8 10 -11 10 -2 0
-4 -4 -4 -10z"/>
<path d="M1156 3538 c-41 -47 -62 -89 -36 -73 6 3 10 13 10 21 0 8 5 14 10 14
6 0 10 7 10 16 0 8 5 12 10 9 6 -3 10 -1 10 4 0 6 4 11 9 11 5 0 7 -10 4 -22
-6 -22 -6 -22 15 2 14 17 17 30 11 41 -4 9 -5 19 -2 23 3 3 4 6 0 6 -3 0 -26
-24 -51 -52z"/>
<path d="M1116 3573 c-3 -4 -6 -17 -6 -30 0 -22 1 -23 16 -9 8 9 12 21 8 27
-4 7 -3 9 4 5 6 -3 13 -3 16 2 5 9 -29 14 -38 5z"/>
<path d="M2492 3529 c18 -12 48 -11 48 0 0 5 -14 9 -31 9 -20 -1 -26 -4 -17
-9z"/>
<path d="M1218 3436 c-6 -14 -15 -26 -20 -26 -12 0 -10 -17 5 -32 7 -7 12 -18
12 -25 0 -14 -15 -30 -15 -16 0 5 -6 10 -14 10 -9 0 -12 -6 -8 -16 5 -14 3
-14 -11 -2 -18 14 -24 67 -7 56 6 -3 10 -1 10 4 0 6 -5 11 -11 11 -5 0 -7 6
-3 13 4 6 -2 3 -13 -8 -10 -11 -22 -29 -27 -40 -6 -16 -9 -17 -16 -5 -6 10 -8
2 -7 -24 2 -22 8 -41 15 -44 7 -2 12 -14 12 -27 0 -12 7 -38 15 -57 14 -36 28
-211 15 -203 -11 7 -3 -126 10 -174 8 -32 14 -41 23 -32 23 23 37 12 36 -26
-2 -31 -3 -33 -6 -10 -6 36 -23 35 -23 -3 0 -31 6 -34 62 -30 25 1 27 -2 33
-47 11 -75 32 -152 50 -179 18 -27 66 -52 118 -60 21 -3 14 2 -21 15 -78 27
-99 52 -117 135 -18 86 -25 192 -14 226 l9 25 -16 -22 c-9 -13 -22 -23 -28
-23 -16 0 -46 37 -38 45 6 6 11 94 14 237 1 27 -5 55 -13 65 -12 15 -12 16 2
11 12 -5 16 -1 14 15 -4 32 -4 32 -21 11 -14 -18 -15 -18 -4 4 6 12 15 20 21
17 5 -4 9 -3 10 2 4 42 4 61 -2 58 -9 -6 -2 63 11 105 5 19 10 36 10 38 0 1
-10 -3 -22 -9 -23 -12 -23 -12 -4 9 17 19 17 22 2 37 -15 15 -17 14 -28 -9z
m22 -6 c0 -5 -5 -10 -11 -10 -5 0 -7 5 -4 10 3 6 8 10 11 10 2 0 4 -4 4 -10z
m-25 -570 c3 -5 1 -10 -4 -10 -6 0 -11 5 -11 10 0 6 2 10 4 10 3 0 8 -4 11
-10z"/>
<path d="M1105 3419 c-10 -30 0 -33 13 -4 6 14 7 25 2 25 -5 0 -12 -9 -15 -21z"/>
<path d="M1320 2756 c0 -24 2 -24 32 -14 29 10 30 12 13 25 -28 20 -45 16 -45
-11z"/>
<path d="M2146 2755 c-9 -26 -7 -32 5 -12 6 10 9 21 6 23 -2 3 -7 -2 -11 -11z"/>
<path d="M2125 2709 c-4 -6 -5 -12 -2 -15 2 -3 7 2 10 11 7 17 1 20 -8 4z"/>
<path d="M2036 2591 c-4 -7 -5 -15 -2 -18 9 -9 19 4 14 18 -4 11 -6 11 -12 0z"/>
<path d="M1996 2481 c-14 -22 -139 -44 -281 -51 l-150 -7 140 -2 c183 -4 191
-3 247 25 40 20 69 44 54 44 -3 0 -7 -4 -10 -9z"/>
<path d="M1498 2433 c6 -2 18 -2 25 0 6 3 1 5 -13 5 -14 0 -19 -2 -12 -5z"/>
<path d="M1855 2247 c-6 -7 -26 -32 -45 -57 -19 -25 -41 -49 -48 -55 -7 -5
-15 -23 -18 -40 -3 -16 -10 -35 -15 -41 -5 -6 -10 -28 -11 -48 -1 -20 -4 -36
-8 -36 -9 0 -31 -89 -34 -139 -5 -60 14 -47 40 28 12 35 27 68 33 74 6 6 11
16 11 22 0 5 16 34 35 62 19 29 43 77 52 107 9 30 20 53 25 50 4 -3 5 2 2 11
-4 8 0 22 7 31 10 12 10 18 -2 29 -11 10 -16 11 -24 2z m-152 -392 c-3 -9 -8
-14 -10 -11 -3 3 -2 9 2 15 9 16 15 13 8 -4z"/>
<path d="M2033 2103 c-7 -2 -13 -11 -13 -18 0 -17 18 -22 60 -15 l35 5 -25 18
c-25 17 -35 19 -57 10z"/>
<path d="M1677 1773 c-3 -5 -1 -17 4 -28 7 -17 8 -17 8 8 1 27 -4 34 -12 20z"/>
<path d="M2270 1593 c0 -12 5 -25 10 -28 13 -8 13 15 0 35 -8 12 -10 11 -10
-7z"/>
<path d="M2290 1140 c0 -5 5 -10 10 -10 6 0 10 5 10 10 0 6 -4 10 -10 10 -5 0
-10 -4 -10 -10z"/>
<path d="M2170 1020 c0 -19 3 -21 12 -12 9 9 9 15 0 24 -9 9 -12 7 -12 -12z"/>
<path d="M1808 963 c7 -3 16 -2 19 1 4 3 -2 6 -13 5 -11 0 -14 -3 -6 -6z"/>
<path d="M1906 952 c-2 -4 4 -8 15 -8 10 0 19 4 19 8 0 10 -27 10 -34 0z"/>
<path d="M1948 923 c6 -2 18 -2 25 0 6 3 1 5 -13 5 -14 0 -19 -2 -12 -5z"/>
<path d="M2344 655 c-4 -8 -12 -15 -20 -15 -8 0 -14 -4 -14 -10 0 -5 -8 -10
-17 -11 -11 0 -13 -3 -6 -6 7 -2 22 2 34 10 12 9 29 13 38 9 13 -5 14 -3 4 10
-7 8 -10 18 -6 21 3 4 3 7 -1 7 -3 0 -9 -7 -12 -15z"/>
<path d="M1665 628 c-5 -12 -26 -33 -45 -46 -48 -32 -65 -62 -21 -36 45 27 83
69 79 89 -2 13 -5 11 -13 -7z"/>
<path d="M2379 623 c-13 -16 -12 -17 4 -4 16 13 21 21 13 21 -2 0 -10 -8 -17
-17z"/>
<path d="M2455 610 c3 -5 8 -10 11 -10 2 0 4 5 4 10 0 6 -5 10 -11 10 -5 0 -7
-4 -4 -10z"/>
<path d="M2405 600 c-3 -5 -1 -10 4 -10 6 0 11 5 11 10 0 6 -2 10 -4 10 -3 0
-8 -4 -11 -10z"/>
<path d="M2330 580 c8 -5 18 -6 24 -3 5 4 7 -1 3 -10 -8 -20 -8 -20 34 -3 l32
14 -29 5 c-50 9 -81 7 -64 -3z"/>
<path d="M2475 570 c-3 -5 -1 -10 4 -10 6 0 11 5 11 10 0 6 -2 10 -4 10 -3 0
-8 -4 -11 -10z"/>
<path d="M1670 522 c-10 -34 -29 -62 -67 -100 -64 -62 -90 -113 -68 -132 19
-16 32 -6 53 38 34 74 89 43 77 -42 -5 -31 -2 -52 10 -76 9 -18 15 -41 12 -51
-4 -14 0 -19 16 -19 36 1 122 26 122 36 0 10 -39 120 -92 256 -18 48 -33 96
-33 107 0 38 -16 29 -30 -17z"/>
<path d="M2428 553 c7 -3 16 -2 19 1 4 3 -2 6 -13 5 -11 0 -14 -3 -6 -6z"/>
<path d="M2260 535 c0 -8 7 -15 16 -15 14 0 14 3 4 15 -7 8 -14 15 -16 15 -2
0 -4 -7 -4 -15z"/>
<path d="M2448 533 c7 -3 16 -2 19 1 4 3 -2 6 -13 5 -11 0 -14 -3 -6 -6z"/>
<path d="M2368 523 c7 -3 16 -2 19 1 4 3 -2 6 -13 5 -11 0 -14 -3 -6 -6z"/>
<path d="M2916 395 c-3 -8 -1 -15 4 -15 13 0 22 18 11 24 -5 3 -11 -1 -15 -9z"/>
<path d="M4535 220 c-3 -5 -2 -10 4 -10 5 0 13 5 16 10 3 6 2 10 -4 10 -5 0
-13 -4 -16 -10z"/>
<path d="M4570 219 c0 -5 5 -7 10 -4 6 3 10 8 10 11 0 2 -4 4 -10 4 -5 0 -10
-5 -10 -11z"/>
<path d="M1396 165 c-6 -16 3 -24 34 -30 21 -4 27 9 10 20 -5 3 -10 1 -10 -5
0 -6 -5 -8 -10 -5 -6 4 -8 10 -5 15 3 5 1 11 -4 14 -5 3 -11 -1 -15 -9z"/>
<path d="M1476 100 c9 -16 20 -30 26 -30 7 0 6 5 -2 15 -6 8 -9 18 -6 24 3 5
-1 12 -10 15 -23 9 -24 8 -8 -24z"/>
<path d="M1540 84 c15 -33 56 -50 44 -19 -8 19 -2 19 43 0 27 -11 39 -12 49
-4 8 6 27 9 44 7 17 -3 27 -1 23 2 -13 12 -104 40 -98 30 8 -13 -14 -23 -28
-12 -7 5 -30 14 -52 19 l-41 10 16 -33z m137 0 c-3 -3 -12 -4 -19 -1 -8 3 -5
6 6 6 11 1 17 -2 13 -5z"/>
<path d="M1925 100 c-44 -3 -91 -12 -105 -18 -21 -10 -14 -11 45 -7 92 5 131
12 153 24 13 8 13 10 2 9 -8 -1 -51 -4 -95 -8z"/>
<path d="M1439 82 c12 -22 58 -58 66 -51 2 2 -15 19 -37 38 -31 26 -38 29 -29
13z"/>
<path d="M2070 60 c-13 -8 -12 -10 3 -10 9 0 17 5 17 10 0 12 -1 12 -20 0z"/>
<path d="M1620 41 c0 -5 -3 -16 -6 -25 -4 -11 -1 -16 10 -16 10 0 16 9 16 25
0 14 -4 25 -10 25 -5 0 -10 -4 -10 -9z"/>
<path d="M2025 40 c-3 -6 1 -7 9 -4 18 7 21 14 7 14 -6 0 -13 -4 -16 -10z"/>
<path d="M1560 30 c0 -5 5 -10 11 -10 5 0 7 5 4 10 -3 6 -8 10 -11 10 -2 0 -4
-4 -4 -10z"/>
<path d="M3825 21 c-6 -5 -21 -11 -35 -14 -17 -3 -13 -4 11 -4 22 1 36 6 36
14 0 15 0 16 -12 4z"/>
<path d="M2108 3 c7 -3 16 -2 19 1 4 3 -2 6 -13 5 -11 0 -14 -3 -6 -6z"/>
</g>
</svg>
